<svg width="621" height="450" viewBox="0 0 621 450" fill="none" xmlns="http://www.w3.org/2000/svg">
<g filter="url(#filter0_d)">
<path d="M152.417 103.418C190.201 103.418 220.832 89.4944 220.832 72.3182C220.832 55.1421 190.201 41.218 152.417 41.218C114.632 41.218 84.002 55.1421 84.002 72.3182C84.002 89.4944 114.632 103.418 152.417 103.418Z" fill="#34130C"/>
<path d="M121.391 57.9737C106.558 59.0263 90.5054 52.4498 85.1188 48.5304L84.3954 48.4577C83.7042 56.3178 80.7765 67.6651 93.1699 74.5025" fill="#34130C"/>
<path d="M105.7 107.513C107.981 80.7899 103.105 58.5526 94.8076 57.8447C86.5106 57.1369 77.9351 78.2266 75.6537 104.95C73.3724 131.673 78.249 153.91 86.5461 154.618C94.8431 155.326 103.419 134.236 105.7 107.513Z" fill="#34130C"/>
<path d="M218.105 154.477C227.027 153.716 232.407 131.403 230.123 104.641C227.838 77.8793 218.753 56.8013 209.831 57.5625C200.909 58.3237 195.528 80.6357 197.813 107.398C200.097 134.16 209.182 155.238 218.105 154.477Z" fill="#34130C"/>
<path d="M114.907 46.2648C107.431 48.2133 99.6008 48.3746 92.0507 46.7355L91.6355 46.7996C94.0089 50.5864 96.3951 56.3113 105.467 57.8474" fill="#34130C"/>
<path d="M178.069 272.022C192.552 272.022 240.829 264.362 257.243 298.288C275.605 323.279 281.381 373.802 287.174 419.767H30V418.707C35.7932 372.742 41.5693 322.219 59.9317 297.228C76.3459 263.301 124.623 270.962 139.106 270.962" fill="white"/>
<path d="M92.2856 298.783C104.123 225.984 232.097 239.308 221.349 323.779" stroke="#66818A" stroke-width="6" stroke-miterlimit="10"/>
<path d="M188.363 221.487C183.227 258.787 192.911 303.235 194.242 303.235H119.037C120.368 303.235 130.052 258.787 124.915 221.487H188.203" fill="#FEC198"/>
<path d="M118.078 304.869C119.409 304.869 129.093 260.421 123.957 223.123C123.957 220.252 152.097 217.929 186.876 217.929C165.706 270.558 119.651 307.706 118.08 304.7L118.078 304.869Z" fill="#FFB587"/>
<path d="M85.6707 132.743C85.6707 186.178 121.021 242.493 156.123 242.493C191.225 242.493 226.425 186.178 226.425 132.743C226.425 79.3076 193.196 59.5761 158.092 59.5761C122.988 59.5761 85.6707 79.3076 85.6707 132.743Z" fill="#FEC198"/>
<path d="M209.029 162.526L226.609 154.708L198.889 92.4182L181.308 100.237L209.029 162.526Z" fill="#FEC198"/>
<path d="M136.215 140.263C134.152 139.546 121.859 134.059 118.63 148.519" stroke="#F5A574" stroke-width="0.9" stroke-miterlimit="10"/>
<path d="M128.766 160.131C130.451 160.131 131.818 158.643 131.818 156.807C131.818 154.971 130.451 153.482 128.766 153.482C127.08 153.482 125.714 154.971 125.714 156.807C125.714 158.643 127.08 160.131 128.766 160.131Z" fill="white"/>
<path d="M152.063 188.5C136.376 190.121 146.835 173.952 149.79 165.918C147.99 174.215 147.988 186.801 152.348 188.47" fill="#F2A973"/>
<path d="M160.037 189.107C165.601 189.107 165.601 189.107 165.601 184.435V183.793C165.475 185.147 164.82 186.397 163.778 187.271C162.737 188.146 161.392 188.575 160.037 188.465" fill="#F2A973"/>
<path d="M136.295 207.104C142.705 210.652 149.912 212.514 157.239 212.514C164.567 212.514 171.774 210.652 178.183 207.104" stroke="#F2A973" stroke-width="2" stroke-miterlimit="10"/>
<path d="M147.768 219.056C147.768 219.056 156.168 225.735 164.568 219.056Z" fill="#F2A973"/>
<path d="M177.085 203.875C177.324 205.373 179.283 209.866 179.811 209.776" stroke="#F2A973" stroke-width="0.9" stroke-miterlimit="10"/>
<path d="M171.85 140.263C173.913 139.547 186.206 134.059 189.436 148.517" stroke="#F5A574" stroke-width="0.9" stroke-miterlimit="10"/>
<path d="M143.293 419.767H168.218L188.262 274.231L190.25 270.771L154.735 306.536L122.259 270.771" fill="#3D7689"/>
<path d="M188.984 271.588L151.855 298.44L162.068 312.553L199.198 285.7L188.984 271.588Z" fill="white"/>
<path d="M188.032 271.354L196.122 271.45L219.199 310.274L200.707 316.451L210.934 322.903L167.084 419.767L188.023 271.357" fill="#B3E3EE"/>
<path d="M112.642 284.066L149.772 310.919L159.985 296.806L122.856 269.954L112.642 284.066Z" fill="white"/>
<path d="M124.278 270.221L115.377 270.317L92.311 310.422L110.793 316.591L100.572 323.034L143.293 419.767L124.286 270.891" fill="#B3E3EE"/>
<path fill-rule="evenodd" clip-rule="evenodd" d="M121.459 154.881C121.459 148.574 125.098 143.463 129.566 143.463C134.035 143.463 137.673 148.574 137.673 154.881C137.673 161.188 134.035 166.299 129.566 166.299C125.098 166.299 121.459 161.188 121.459 154.881Z" fill="#404040"/>
<path d="M121.459 154.881C121.459 148.574 125.098 143.463 129.566 143.463C134.035 143.463 137.673 148.574 137.673 154.881C137.673 161.188 134.035 166.299 129.566 166.299C125.098 166.299 121.459 161.188 121.459 154.881Z" stroke="#595959" stroke-width="0.288" stroke-miterlimit="8"/>
<path fill-rule="evenodd" clip-rule="evenodd" d="M122.313 155.125C122.313 149.349 125.75 144.677 129.994 144.677C134.238 144.677 137.673 149.355 137.673 155.125C137.673 160.895 134.236 165.572 129.994 165.572C125.752 165.572 122.313 160.893 122.313 155.125Z" fill="white"/>
<path d="M122.313 155.125C122.313 149.349 125.75 144.677 129.994 144.677C134.238 144.677 137.673 149.355 137.673 155.125C137.673 160.895 134.236 165.572 129.994 165.572C125.752 165.572 122.313 160.893 122.313 155.125Z" stroke="white" stroke-width="0.288" stroke-miterlimit="8"/>
<path fill-rule="evenodd" clip-rule="evenodd" d="M124.588 155.611C124.588 151.182 127.328 147.593 130.705 147.593C134.082 147.593 136.821 151.182 136.821 155.611C136.821 160.039 134.082 163.627 130.705 163.627C127.328 163.627 124.588 160.037 124.588 155.611Z" fill="#705D4D"/>
<path d="M124.588 155.611C124.588 151.182 127.328 147.593 130.705 147.593C134.082 147.593 136.821 151.182 136.821 155.611C136.821 160.039 134.082 163.627 130.705 163.627C127.328 163.627 124.588 160.037 124.588 155.611Z" stroke="#705D4D" stroke-width="0.288" stroke-miterlimit="8"/>
<path fill-rule="evenodd" clip-rule="evenodd" d="M126.863 156.46C126.863 152.905 129.028 150.023 131.699 150.023C134.37 150.023 136.536 152.905 136.536 156.46C136.536 160.016 134.37 162.898 131.699 162.898C129.028 162.898 126.863 160.016 126.863 156.46Z" fill="#29211D"/>
<path d="M126.863 156.46C126.863 152.905 129.028 150.023 131.699 150.023C134.37 150.023 136.536 152.905 136.536 156.46C136.536 160.016 134.37 162.898 131.699 162.898C129.028 162.898 126.863 160.016 126.863 156.46Z" stroke="#29211D" stroke-width="0.288" stroke-miterlimit="8"/>
<path fill-rule="evenodd" clip-rule="evenodd" d="M131.13 153.433C131.19 153.081 131.349 152.753 131.588 152.488C131.828 152.223 132.139 152.032 132.484 151.938C132.828 151.844 133.193 151.85 133.534 151.956C133.875 152.061 134.179 152.263 134.41 152.536C134.641 152.808 134.789 153.141 134.836 153.496C134.884 153.85 134.83 154.21 134.679 154.534C134.529 154.858 134.289 155.133 133.988 155.325C133.686 155.517 133.336 155.619 132.979 155.62C132.445 155.571 131.952 155.315 131.606 154.905C131.26 154.496 131.089 153.967 131.13 153.433Z" fill="white"/>
<path fill-rule="evenodd" clip-rule="evenodd" d="M186.825 154.445C186.825 148.138 183.187 143.025 178.718 143.025C174.25 143.025 170.61 148.138 170.61 154.445C170.61 160.752 174.248 165.863 178.718 165.863C183.189 165.863 186.825 160.75 186.825 154.445Z" fill="#404040"/>
<path d="M186.825 154.445C186.825 148.138 183.187 143.025 178.718 143.025C174.25 143.025 170.61 148.138 170.61 154.445C170.61 160.752 174.248 165.863 178.718 165.863C183.189 165.863 186.825 160.75 186.825 154.445Z" stroke="#595959" stroke-width="0.288" stroke-miterlimit="8"/>
<path fill-rule="evenodd" clip-rule="evenodd" d="M185.971 154.687C185.971 148.91 182.532 144.24 178.29 144.24C174.048 144.24 170.609 148.917 170.609 154.687C170.609 160.457 174.048 165.133 178.29 165.133C182.532 165.133 185.971 160.457 185.971 154.687Z" fill="white"/>
<path d="M185.971 154.687C185.971 148.91 182.532 144.24 178.29 144.24C174.048 144.24 170.609 148.917 170.609 154.687C170.609 160.457 174.048 165.133 178.29 165.133C182.532 165.133 185.971 160.457 185.971 154.687Z" stroke="white" stroke-width="0.288" stroke-miterlimit="8"/>
<path fill-rule="evenodd" clip-rule="evenodd" d="M183.697 155.172C183.697 150.746 180.958 147.156 177.581 147.156C174.203 147.156 171.464 150.746 171.464 155.172C171.464 159.599 174.203 163.191 177.581 163.191C180.958 163.191 183.697 159.601 183.697 155.172Z" fill="#705D4D"/>
<path d="M183.697 155.172C183.697 150.746 180.958 147.156 177.581 147.156C174.203 147.156 171.464 150.746 171.464 155.172C171.464 159.599 174.203 163.191 177.581 163.191C180.958 163.191 183.697 159.601 183.697 155.172Z" stroke="#705D4D" stroke-width="0.288" stroke-miterlimit="8"/>
<path fill-rule="evenodd" clip-rule="evenodd" d="M181.42 156.024C181.42 152.468 179.256 149.586 176.585 149.586C173.914 149.586 171.749 152.468 171.749 156.024C171.749 159.579 173.914 162.461 176.585 162.461C179.256 162.461 181.42 159.579 181.42 156.024Z" fill="#29211D"/>
<path d="M181.42 156.024C181.42 152.468 179.256 149.586 176.585 149.586C173.914 149.586 171.749 152.468 171.749 156.024C171.749 159.579 173.914 162.461 176.585 162.461C179.256 162.461 181.42 159.579 181.42 156.024Z" stroke="#29211D" stroke-width="0.288" stroke-miterlimit="8"/>
<path fill-rule="evenodd" clip-rule="evenodd" d="M177.154 152.996C177.095 152.644 176.935 152.316 176.696 152.051C176.456 151.786 176.145 151.596 175.801 151.501C175.456 151.407 175.091 151.413 174.75 151.519C174.409 151.625 174.105 151.826 173.874 152.099C173.643 152.372 173.495 152.705 173.448 153.059C173.4 153.413 173.455 153.773 173.605 154.097C173.755 154.422 173.995 154.696 174.297 154.888C174.598 155.081 174.948 155.183 175.305 155.183C175.839 155.134 176.332 154.878 176.678 154.469C177.024 154.06 177.195 153.531 177.154 152.996V152.996Z" fill="white"/>
<path d="M64.6757 325.559C57.0422 351.191 50.4183 366.033 68.4224 368.782" stroke="#C1C0BF" stroke-width="3" stroke-miterlimit="10"/>
<path d="M69.2707 373.158L72.9564 373.589C73.9977 373.711 74.9406 372.966 75.0625 371.925L75.4939 368.241C75.6158 367.2 74.8705 366.257 73.8292 366.135L70.1435 365.703C69.1022 365.582 68.1593 366.326 68.0374 367.367L67.606 371.052C67.4841 372.093 68.2294 373.036 69.2707 373.158Z" fill="#66818A"/>
<path d="M106.721 334.212C103.28 360.733 103.297 376.985 85.7335 372.182" stroke="#C1C0BF" stroke-width="3" stroke-miterlimit="10"/>
<path d="M85.4111 368.669L81.8679 367.566C80.8669 367.255 79.8028 367.813 79.4912 368.814L78.3882 372.356C78.0766 373.356 78.6355 374.42 79.6365 374.732L83.1796 375.835C84.1806 376.147 85.2447 375.588 85.5563 374.587L86.6593 371.045C86.9709 370.045 86.4121 368.981 85.4111 368.669Z" fill="#66818A"/>
<path d="M64.9539 327.924C76.3246 284.497 112.646 295.739 106.069 337.884" stroke="#66818A" stroke-width="6" stroke-miterlimit="10"/>
<path d="M224.831 331.502C226.944 329.677 226.12 325.261 222.989 321.638C219.858 318.016 215.607 316.559 213.494 318.384C211.38 320.209 212.205 324.626 215.336 328.248C218.466 331.87 222.717 333.327 224.831 331.502Z" fill="#C1C0BF"/>
<path d="M211.691 318.861C210.629 317.631 208.77 317.496 207.541 318.559C206.311 319.621 206.176 321.479 207.239 322.708L219.499 336.886C220.562 338.115 222.42 338.25 223.65 337.188C224.879 336.125 225.014 334.268 223.951 333.039L211.691 318.861Z" fill="#66818A"/>
<path d="M248.744 345.408H215.038V353.005H248.744V345.408Z" fill="#B3E3EE"/>
<path d="M157.158 302.052L150.738 296.858L139.823 403.149L143.836 419.767H157.158V302.052Z" fill="#242C41"/>
<path d="M154.648 302.052L161.068 296.858L171.983 403.149L167.97 419.767H154.648V302.052Z" fill="#242C41"/>
<path d="M159.415 293.18H152.349C148.867 293.18 146.044 296.001 146.044 299.482V301.812C146.044 305.293 148.867 308.115 152.349 308.115H159.415C162.897 308.115 165.72 305.293 165.72 301.812V299.482C165.72 296.001 162.897 293.18 159.415 293.18Z" fill="#242C41"/>
<path d="M156.035 108.929C193.82 108.929 224.45 95.0054 224.45 77.8292C224.45 60.653 193.82 46.729 156.035 46.729C118.251 46.729 87.6204 60.653 87.6204 77.8292C87.6204 95.0054 118.251 108.929 156.035 108.929Z" fill="#461F15"/>
<path d="M125.017 63.4846C110.184 64.5372 94.1307 57.9607 88.744 54.0414L88.0207 53.9708C87.3294 61.8287 84.4018 73.176 96.7951 80.0135" fill="#461F15"/>
<path d="M109.318 113.024C111.6 86.3009 106.723 64.0636 98.4261 63.3557C90.129 62.6479 81.5535 83.7376 79.2721 110.461C76.9908 137.184 81.8674 159.421 90.1645 160.129C98.4615 160.837 107.037 139.747 109.318 113.024Z" fill="#461F15"/>
<path d="M221.722 159.988C230.645 159.226 236.025 136.914 233.741 110.152C231.456 83.3902 222.371 62.3123 213.449 63.0735C204.527 63.8346 199.146 86.1467 201.431 112.909C203.715 139.671 212.8 160.749 221.722 159.988Z" fill="#461F15"/>
<path d="M118.525 51.7758C111.049 53.7243 103.219 53.8855 95.6691 52.2464L95.2539 52.3106C97.6273 56.0973 100.013 61.8223 109.085 63.3584" fill="#461F15"/>
<path d="M211.478 166.757L225.899 161.732L204.412 100.117L189.991 105.142L211.478 166.757Z" fill="#FEC198"/>
<path d="M89.9881 177.867C94.8941 176.734 96.5453 165.749 93.6761 153.33C90.807 140.912 84.504 131.763 79.5981 132.896C74.6921 134.028 73.041 145.014 75.9101 157.432C78.7793 169.851 85.0822 179 89.9881 177.867Z" fill="#FEC198"/>
<path d="M235.244 157.431C238.114 145.013 236.462 134.028 231.557 132.895C226.651 131.762 220.348 140.911 217.478 153.33C214.609 165.748 216.261 176.733 221.166 177.866C226.072 178.999 232.375 169.85 235.244 157.431Z" fill="#FEC198"/>
<path d="M122.705 105.269L108.285 100.244L86.7981 161.858L101.219 166.884L122.705 105.269Z" fill="#FEC198"/>
<path d="M144.164 131.422C138.525 128.213 123.938 128.414 114.168 134.462C117.162 125.947 144.496 117.283 144.164 131.422Z" fill="#5C2E1F"/>
<path d="M164.367 131.422C170.008 128.213 184.595 128.414 194.362 134.462C191.368 125.947 164.037 117.283 164.367 131.422Z" fill="#5C2E1F"/>
<path d="M227.016 147.956C227.016 147.956 231.812 157.556 223.536 164.384Z" fill="#F2A973"/>
<path d="M83.647 148.194C83.647 148.194 79.4251 158.44 88.4209 164.856Z" fill="#F2A973"/>
</g>
<g filter="url(#filter1_d)">
<path d="M469.949 319.854H438.339C398.394 319.854 365.666 287.126 365.666 247.181V116.37C365.666 76.4258 398.394 43.6976 438.339 43.6976H469.949C509.893 43.6976 542.621 76.4258 542.621 116.37V247.283C542.621 287.126 509.893 319.854 469.949 319.854Z" fill="#461F15"/>
<path d="M391.482 291.09C412.476 291.09 429.496 241.58 429.496 180.505C429.496 119.431 412.476 69.9208 391.482 69.9208C370.488 69.9208 353.469 119.431 353.469 180.505C353.469 241.58 370.488 291.09 391.482 291.09Z" fill="#461F15"/>
<path d="M518.227 293.123C537.425 293.123 552.988 244.204 552.988 183.859C552.988 123.515 537.425 74.5962 518.227 74.5962C499.029 74.5962 483.466 123.515 483.466 183.859C483.466 244.204 499.029 293.123 518.227 293.123Z" fill="#461F15"/>
<path d="M453.715 300.259C483.123 300.259 506.962 254.102 506.962 197.163C506.962 140.225 483.123 94.0668 453.715 94.0668C424.307 94.0668 400.467 140.225 400.467 197.163C400.467 254.102 424.307 300.259 453.715 300.259Z" fill="#34130C"/>
<path d="M475.945 277.101C491.191 277.101 542.012 269.732 559.29 302.366C578.602 326.368 584.7 375.003 590.799 419.217H320.029V418.164C326.128 373.95 332.226 325.315 351.538 301.313C368.817 268.679 419.637 276.048 434.883 276.048" fill="white"/>
<path d="M516.447 301.16C504.61 228.361 376.636 241.685 387.384 326.156" stroke="#66818A" stroke-width="6" stroke-miterlimit="10"/>
<path d="M550.752 354.513H515.178V362.543H550.752V354.513Z" fill="#FDFFFF"/>
<path d="M487.024 223.703C481.637 263.037 491.801 309.995 493.224 309.995H413.843C415.266 309.995 425.43 263.037 420.043 223.703H486.82" fill="#FEC198"/>
<path d="M412.827 311.723C414.25 311.723 424.414 264.765 419.027 225.43C419.027 222.381 448.706 219.942 485.398 219.942C463.037 275.539 414.453 314.772 412.827 311.52V311.723V311.723Z" fill="#FFB587"/>
<path d="M378.676 129.99C378.676 186.4 415.978 245.86 453.076 245.86C490.175 245.86 527.274 186.4 527.274 129.99C527.274 73.5798 492.208 52.7436 455.109 52.7436C418.011 52.7436 378.676 73.5798 378.676 129.99Z" fill="#FEC198"/>
<path d="M383.238 177.63C388.434 176.43 390.188 164.817 387.157 151.691C384.126 138.565 377.457 128.897 372.261 130.097C367.065 131.296 365.311 142.91 368.342 156.036C371.373 169.162 378.042 178.83 383.238 177.63Z" fill="#FEC198"/>
<path d="M536.519 156.021C539.55 142.895 537.795 131.281 532.599 130.082C527.404 128.882 520.734 138.55 517.703 151.676C514.672 164.802 516.427 176.415 521.622 177.615C526.818 178.815 533.487 169.147 536.519 156.021Z" fill="#FEC198"/>
<path d="M425.65 93.543L407.076 85.2797L377.824 151.031L396.398 159.294L425.65 93.543Z" fill="#FEC198"/>
<path d="M508.818 161.46L527.392 153.197L498.139 87.4455L479.566 95.7089L508.818 161.46Z" fill="#FEC198"/>
<path d="M438.875 133.462C430.459 131.613 420.86 127.971 407.265 137.847C410.415 128.801 434.424 120.85 438.875 133.462Z" fill="#5C2E1F"/>
<path d="M462.778 133.462C471.194 131.613 480.793 127.971 494.388 137.847C491.238 128.801 467.229 120.85 462.778 133.462Z" fill="#5C2E1F"/>
<path d="M432.037 138.786C429.902 138.074 416.892 132.281 413.437 147.527" stroke="#F5A574" stroke-miterlimit="10"/>
<path d="M424.109 158.958C425.905 158.958 427.362 157.365 427.362 155.4C427.362 153.435 425.905 151.843 424.109 151.843C422.313 151.843 420.857 153.435 420.857 155.4C420.857 157.365 422.313 158.958 424.109 158.958Z" fill="white"/>
<path d="M448.706 188.84C432.138 190.568 443.217 173.492 446.266 164.954C444.335 173.695 444.335 187.01 449.011 188.738" fill="#F2A973"/>
<path d="M457.142 189.45C463.037 189.45 463.037 189.45 463.037 184.469V183.758C463.037 186.502 460.395 188.738 457.142 188.738" fill="#F2A973"/>
<path d="M432.037 208.456C432.037 208.456 452.975 221.466 476.25 208.456" stroke="#F2A973" stroke-width="2" stroke-miterlimit="10"/>
<path d="M444.132 221.161C444.132 221.161 452.974 228.175 461.817 221.161Z" fill="#F2A973"/>
<path d="M475.133 205.102C475.336 206.627 477.47 211.404 477.978 211.302" stroke="#F2A973" stroke-miterlimit="10"/>
<path d="M469.644 138.786C471.778 138.074 484.788 132.281 488.244 147.527" stroke="#F5A574" stroke-miterlimit="10"/>
<path d="M439.131 419.217H459.491L486.468 278.082L486.57 275.335L453.383 302.59L416.328 275.335" fill="#3D7689"/>
<path d="M489.228 273.629L453.323 300.662L464.388 315.359L500.294 288.327L489.228 273.629Z" fill="white"/>
<path d="M407.103 289.626L443.142 315.72L453.932 300.819L417.893 274.724L407.103 289.626Z" fill="white"/>
<path d="M539.625 110.398C545.703 96.7349 522.626 73.1989 488.079 57.8292C453.532 42.4596 420.599 41.0764 414.52 54.7399C408.441 68.4034 431.519 91.9393 466.066 107.309C500.612 122.679 533.546 124.062 539.625 110.398Z" fill="#461F15"/>
<path fill-rule="evenodd" clip-rule="evenodd" d="M416.384 153.367C416.384 146.659 420.246 141.272 424.922 141.272C429.597 141.272 433.459 146.659 433.459 153.367C433.459 160.076 429.597 165.463 424.922 165.463C420.246 165.463 416.384 159.974 416.384 153.367Z" fill="#404040"/>
<path d="M416.384 153.367C416.384 146.659 420.246 141.272 424.922 141.272C429.597 141.272 433.459 146.659 433.459 153.367C433.459 160.076 429.597 165.463 424.922 165.463C420.246 165.463 416.384 159.974 416.384 153.367Z" stroke="#595959" stroke-width="0.6392" stroke-miterlimit="8"/>
<path fill-rule="evenodd" clip-rule="evenodd" d="M417.299 153.571C417.299 147.472 420.958 142.492 425.43 142.492C429.902 142.492 433.562 147.472 433.562 153.571C433.562 159.669 429.902 164.65 425.43 164.65C420.958 164.65 417.299 159.669 417.299 153.571Z" fill="white"/>
<path d="M417.299 153.571C417.299 147.472 420.958 142.492 425.43 142.492C429.902 142.492 433.562 147.472 433.562 153.571C433.562 159.669 429.902 164.65 425.43 164.65C420.958 164.65 417.299 159.669 417.299 153.571Z" stroke="white" stroke-width="0.6392" stroke-miterlimit="8"/>
<path fill-rule="evenodd" clip-rule="evenodd" d="M419.738 154.181C419.738 149.505 422.584 145.744 426.243 145.744C429.902 145.744 432.748 149.505 432.748 154.181C432.748 158.856 429.902 162.617 426.243 162.617C422.584 162.617 419.738 158.856 419.738 154.181Z" fill="#705D4D"/>
<path d="M419.738 154.181C419.738 149.505 422.584 145.744 426.243 145.744C429.902 145.744 432.748 149.505 432.748 154.181C432.748 158.856 429.902 162.617 426.243 162.617C422.584 162.617 419.738 158.856 419.738 154.181Z" stroke="#705D4D" stroke-width="0.6392" stroke-miterlimit="8"/>
<path fill-rule="evenodd" clip-rule="evenodd" d="M422.076 154.994C422.076 151.233 424.312 148.184 427.158 148.184C430.004 148.184 432.24 151.233 432.24 154.994C432.24 158.754 430.004 161.804 427.158 161.804C424.414 161.804 422.076 158.754 422.076 154.994Z" fill="#29211D"/>
<path d="M422.076 154.994C422.076 151.233 424.312 148.184 427.158 148.184C430.004 148.184 432.24 151.233 432.24 154.994C432.24 158.754 430.004 161.804 427.158 161.804C424.414 161.804 422.076 158.754 422.076 154.994Z" stroke="#29211D" stroke-width="0.6392" stroke-miterlimit="8"/>
<path fill-rule="evenodd" clip-rule="evenodd" d="M426.65 151.843C426.65 150.522 427.565 149.505 428.581 149.505C429.597 149.505 430.512 150.522 430.512 151.843C430.512 153.164 429.597 154.181 428.581 154.181C427.565 154.181 426.65 153.063 426.65 151.843Z" fill="white"/>
<path fill-rule="evenodd" clip-rule="evenodd" d="M485.398 152.859C485.398 146.151 481.536 140.764 476.86 140.764C472.185 140.764 468.323 146.151 468.323 152.859C468.323 159.567 472.185 164.954 476.86 164.954C481.536 164.954 485.398 159.567 485.398 152.859Z" fill="#404040"/>
<path d="M485.398 152.859C485.398 146.151 481.536 140.764 476.86 140.764C472.185 140.764 468.323 146.151 468.323 152.859C468.323 159.567 472.185 164.954 476.86 164.954C481.536 164.954 485.398 159.567 485.398 152.859Z" stroke="#595959" stroke-width="0.6392" stroke-miterlimit="8"/>
<path fill-rule="evenodd" clip-rule="evenodd" d="M484.483 153.164C484.483 147.066 480.824 142.085 476.352 142.085C471.88 142.085 468.221 147.066 468.221 153.164C468.221 159.263 471.88 164.243 476.352 164.243C480.824 164.141 484.483 159.263 484.483 153.164Z" fill="white"/>
<path d="M484.483 153.164C484.483 147.066 480.824 142.085 476.352 142.085C471.88 142.085 468.221 147.066 468.221 153.164C468.221 159.263 471.88 164.243 476.352 164.243C480.824 164.141 484.483 159.263 484.483 153.164Z" stroke="white" stroke-width="0.6392" stroke-miterlimit="8"/>
<path fill-rule="evenodd" clip-rule="evenodd" d="M482.145 153.672C482.145 148.997 479.299 145.236 475.64 145.236C472.083 145.236 469.135 148.997 469.135 153.672C469.135 158.348 471.981 162.108 475.64 162.108C479.197 162.108 482.145 158.348 482.145 153.672Z" fill="#705D4D"/>
<path d="M482.145 153.672C482.145 148.997 479.299 145.236 475.64 145.236C472.083 145.236 469.135 148.997 469.135 153.672C469.135 158.348 471.981 162.108 475.64 162.108C479.197 162.108 482.145 158.348 482.145 153.672Z" stroke="#705D4D" stroke-width="0.6392" stroke-miterlimit="8"/>
<path fill-rule="evenodd" clip-rule="evenodd" d="M479.705 154.587C479.705 150.826 477.469 147.777 474.623 147.777C471.777 147.777 469.541 150.826 469.541 154.587C469.541 158.348 471.777 161.397 474.623 161.397C477.368 161.397 479.705 158.348 479.705 154.587Z" fill="#29211D"/>
<path d="M479.705 154.587C479.705 150.826 477.469 147.777 474.623 147.777C471.777 147.777 469.541 150.826 469.541 154.587C469.541 158.348 471.777 161.397 474.623 161.397C477.368 161.397 479.705 158.348 479.705 154.587Z" stroke="#29211D" stroke-width="0.6392" stroke-miterlimit="8"/>
<path fill-rule="evenodd" clip-rule="evenodd" d="M475.233 151.335C475.233 150.013 474.318 148.997 473.302 148.997C472.286 148.997 471.371 150.013 471.371 151.335C471.371 152.656 472.286 153.672 473.302 153.672C474.318 153.672 475.233 152.656 475.233 151.335Z" fill="white"/>
<path d="M376.237 152.249C376.237 152.249 373.492 163.227 383.656 168.309Z" fill="#F2A973"/>
<path d="M401.013 130.461C416.096 96.5587 421.297 65.949 412.629 62.0927C403.961 58.2363 384.707 82.5937 369.624 116.496C354.541 150.399 349.34 181.009 358.008 184.865C366.676 188.721 385.93 164.364 401.013 130.461Z" fill="#461F15"/>
<path d="M524.428 151.741C524.428 151.741 529.51 161.905 520.769 169.122Z" fill="#F2A973"/>
<path d="M479.183 276.468L486.394 276.56L506.962 313.903L490.481 319.845L499.596 326.05L460.512 419.217L479.176 276.471" fill="#B3E3EE"/>
<path d="M541.734 350.108H511.494V356.924H541.734V350.108Z" fill="#B3E3EE"/>
<path d="M422.084 275.335L414.172 275.427L393.669 314.014L410.098 319.949L401.012 326.148L438.987 419.217L422.092 275.98" fill="#B3E3EE"/>
<path d="M414.627 61.9928C414.22 94.6193 444.651 99.7607 482.711 120.029C560.77 161.6 509.747 224.312 502.022 240.168C458.419 292.208 475.132 305.828 498.205 319.244L496.985 319.041C495.054 269.441 533.169 262.122 547.805 215.266V216.486C560.713 179.082 550.651 121.118 501.051 95.606C467.876 80.4715 436.363 90.9603 415.018 61.7896" fill="#5C2E1F"/>
<path d="M546.197 321.943C554.411 347.394 561.371 362.082 543.434 365.24" stroke="#C1C0BF" stroke-width="3" stroke-miterlimit="10"/>
<path d="M542.686 369.633L539.011 370.149C537.973 370.295 537.013 369.571 536.868 368.533L536.352 364.86C536.207 363.822 536.931 362.862 537.969 362.717L541.644 362.201C542.682 362.056 543.642 362.779 543.787 363.817L544.302 367.491C544.448 368.528 543.724 369.488 542.686 369.633Z" fill="#66818A"/>
<path d="M504.36 331.55C508.404 357.985 508.756 374.235 526.206 369.033" stroke="#C1C0BF" stroke-width="3" stroke-miterlimit="10"/>
<path d="M526.448 365.514L529.965 364.33C530.959 363.996 532.035 364.53 532.369 365.523L533.553 369.039C533.887 370.033 533.353 371.109 532.359 371.443L528.842 372.627C527.848 372.961 526.772 372.427 526.437 371.433L525.254 367.917C524.92 366.924 525.454 365.848 526.448 365.514Z" fill="#66818A"/>
<path d="M545.973 324.313C533.617 281.156 497.561 293.221 505.094 335.206" stroke="#66818A" stroke-width="6" stroke-miterlimit="10"/>
<path d="M383.901 330.879C381.788 329.054 382.613 324.638 385.743 321.015C388.874 317.393 393.125 315.936 395.238 317.761C397.352 319.586 396.527 324.003 393.396 327.625C390.266 331.247 386.015 332.704 383.901 330.879Z" fill="#C1C0BF"/>
<path d="M397.041 318.237C398.104 317.008 399.962 316.873 401.192 317.936C402.421 318.998 402.556 320.856 401.494 322.085L389.234 336.263C388.171 337.492 386.312 337.627 385.083 336.565C383.854 335.502 383.718 333.645 384.781 332.416L397.041 318.237Z" fill="#66818A"/>
</g>
<defs>
<filter id="filter0_d" x="0" y="11.218" width="317.174" height="438.549" filterUnits="userSpaceOnUse" color-interpolation-filters="sRGB">
<feFlood flood-opacity="0" result="BackgroundImageFix"/>
<feColorMatrix in="SourceAlpha" type="matrix" values="0 0 0 0 0 0 0 0 0 0 0 0 0 0 0 0 0 0 127 0"/>
<feOffset/>
<feGaussianBlur stdDeviation="15"/>
<feColorMatrix type="matrix" values="0 0 0 0 0 0 0 0 0 0 0 0 0 0 0 0 0 0 0.15 0"/>
<feBlend mode="normal" in2="BackgroundImageFix" result="effect1_dropShadow"/>
<feBlend mode="normal" in="SourceGraphic" in2="effect1_dropShadow" result="shape"/>
</filter>
<filter id="filter1_d" x="290.029" y="0" width="330.77" height="449.217" filterUnits="userSpaceOnUse" color-interpolation-filters="sRGB">
<feFlood flood-opacity="0" result="BackgroundImageFix"/>
<feColorMatrix in="SourceAlpha" type="matrix" values="0 0 0 0 0 0 0 0 0 0 0 0 0 0 0 0 0 0 127 0"/>
<feOffset/>
<feGaussianBlur stdDeviation="15"/>
<feColorMatrix type="matrix" values="0 0 0 0 0 0 0 0 0 0 0 0 0 0 0 0 0 0 0.15 0"/>
<feBlend mode="normal" in2="BackgroundImageFix" result="effect1_dropShadow"/>
<feBlend mode="normal" in="SourceGraphic" in2="effect1_dropShadow" result="shape"/>
</filter>
</defs>
</svg>
