<svg width="194" height="285" viewBox="0 0 194 285" fill="none" xmlns="http://www.w3.org/2000/svg">
<path d="M92.1036 46.7986C120.532 46.7986 143.578 36.3224 143.578 23.3993C143.578 10.4762 120.532 0 92.1036 0C63.6752 0 40.6294 10.4762 40.6294 23.3993C40.6294 36.3224 63.6752 46.7986 92.1036 46.7986Z" fill="#34130C"/>
<path d="M68.7605 12.6068C57.6004 13.3988 45.5224 8.45073 41.4696 5.50188L40.9254 5.44714C40.4053 11.3609 38.2026 19.8985 47.5271 25.0429" fill="#34130C"/>
<path d="M56.9545 49.8795C58.6709 29.7733 55.0018 13.0424 48.7593 12.5098C42.5167 11.9772 36.0646 27.8447 34.3482 47.9509C32.6317 68.0571 36.3008 84.7881 42.5434 85.3206C48.7859 85.8532 55.238 69.9857 56.9545 49.8795Z" fill="#34130C"/>
<path d="M141.525 85.2143C148.238 84.6416 152.286 67.8544 150.567 47.719C148.848 27.5836 142.013 11.7249 135.3 12.2976C128.587 12.8703 124.539 29.6575 126.258 49.7929C127.977 69.9283 134.812 85.787 141.525 85.2143Z" fill="#34130C"/>
<path d="M63.8816 3.797C58.2567 5.26303 52.3655 5.38434 46.6849 4.15111L46.3726 4.19941C48.1582 7.04846 49.9536 11.3558 56.7791 12.5116" fill="#34130C"/>
<path d="M111.404 173.654C122.301 173.654 158.624 167.89 170.974 193.415C184.789 212.218 189.135 250.231 193.494 284.814H0V284.016C4.35873 249.433 8.70455 211.421 22.5201 192.618C34.8699 167.092 71.1926 172.856 82.0895 172.856" fill="white"/>
<path d="M46.8623 193.787C55.7682 139.015 152.054 149.04 143.967 212.594" stroke="#66818A" stroke-width="6" stroke-miterlimit="10"/>
<path d="M119.149 135.631C115.284 163.695 122.571 197.137 123.572 197.137H66.9888C67.9903 197.137 75.2764 163.695 71.4119 135.631H119.028" fill="#FEC198"/>
<path d="M66.269 198.367C67.2706 198.367 74.5567 164.925 70.6922 136.863C70.6922 134.703 91.8645 132.954 118.032 132.954C102.104 172.552 67.4525 200.501 66.2707 198.24L66.269 198.367Z" fill="#FFB587"/>
<path d="M41.8857 68.8619C41.8857 109.066 68.4827 151.436 94.8928 151.436C121.303 151.436 147.787 109.066 147.787 68.8619C147.787 28.6581 122.786 13.8124 96.3742 13.8124C69.9624 13.8124 41.8857 28.6581 41.8857 68.8619Z" fill="#FEC198"/>
<path d="M134.699 91.2707L147.926 85.3882L127.069 38.5223L113.842 44.4048L134.699 91.2707Z" fill="#FEC198"/>
<path d="M81.6318 67.9782C77.3889 65.5637 66.4139 65.715 59.0635 70.2655C61.3161 63.8591 81.8813 57.3401 81.6318 67.9782Z" fill="#5C2E1F"/>
<path d="M79.9144 74.9382C78.3622 74.399 69.1134 70.2703 66.6836 81.1498" stroke="#F5A574" stroke-width="0.9" stroke-miterlimit="10"/>
<path d="M74.3093 89.4687C75.5774 89.4687 76.6054 88.3488 76.6054 86.9673C76.6054 85.5858 75.5774 84.4659 74.3093 84.4659C73.0412 84.4659 72.0132 85.5858 72.0132 86.9673C72.0132 88.3488 73.0412 89.4687 74.3093 89.4687Z" fill="white"/>
<path d="M91.8387 110.812C80.0361 112.032 87.905 99.8668 90.1287 93.8226C88.7745 100.065 88.7729 109.534 92.0529 110.79" fill="#F2A973"/>
<path d="M97.8384 111.269C102.025 111.269 102.025 111.269 102.025 107.754V107.271C101.93 108.29 101.437 109.23 100.654 109.888C99.8699 110.546 98.8585 110.869 97.8384 110.786" fill="#F2A973"/>
<path d="M79.9746 124.81C84.7973 127.48 90.2197 128.88 95.7326 128.88C101.246 128.88 106.668 127.48 111.491 124.81" stroke="#F2A973" stroke-width="1.35" stroke-miterlimit="10"/>
<path d="M88.6064 133.803C88.6064 133.803 94.9264 138.828 101.246 133.803H88.6064Z" fill="#F2A973"/>
<path d="M110.664 122.381C110.844 123.508 112.317 126.888 112.715 126.82" stroke="#F2A973" stroke-width="0.9" stroke-miterlimit="10"/>
<path d="M106.726 73.937C108.278 73.3978 117.527 69.2691 119.956 80.147" stroke="#F5A574" stroke-width="0.9" stroke-miterlimit="10"/>
<path d="M85.2396 284.814H103.992L119.074 175.315L120.569 172.712L93.8481 199.621L69.4136 172.712" fill="#3D7689"/>
<path d="M119.617 173.326L91.6816 193.53L99.366 204.148L127.302 183.945L119.617 173.326Z" fill="white"/>
<path d="M118.901 173.15L124.988 173.223L142.35 202.434L128.438 207.081L136.132 211.935L103.14 284.814L118.894 173.153" fill="#B3E3EE"/>
<path d="M62.1791 182.715L90.1147 202.919L97.7991 192.301L69.8635 172.097L62.1791 182.715Z" fill="white"/>
<path d="M70.9335 172.298L64.2365 172.37L46.8823 202.545L60.7881 207.186L53.0977 212.034L85.2401 284.814L70.9399 172.802" fill="#B3E3EE"/>
<path d="M105.357 67.9782C109.601 65.5637 120.576 65.715 127.925 70.2655C125.672 63.8591 105.109 57.3401 105.357 67.9782Z" fill="#5C2E1F"/>
<path fill-rule="evenodd" clip-rule="evenodd" d="M68.8125 85.5184C68.8125 80.7732 71.5498 76.9277 74.9119 76.9277C78.2739 76.9277 81.0112 80.7732 81.0112 85.5184C81.0112 90.2636 78.2739 94.109 74.9119 94.109C71.5498 94.109 68.8125 90.2636 68.8125 85.5184Z" fill="#404040"/>
<path d="M68.8125 85.5184C68.8125 80.7732 71.5498 76.9277 74.9119 76.9277C78.2739 76.9277 81.0112 80.7732 81.0112 85.5184C81.0112 90.2636 78.2739 94.109 74.9119 94.109C71.5498 94.109 68.8125 90.2636 68.8125 85.5184Z" stroke="#595959" stroke-width="0.288" stroke-miterlimit="8"/>
<path fill-rule="evenodd" clip-rule="evenodd" d="M69.4556 85.7019C69.4556 81.3559 72.0415 77.8405 75.2345 77.8405C78.4275 77.8405 81.0118 81.3607 81.0118 85.7019C81.0118 90.0431 78.4259 93.5618 75.2345 93.5618C72.0431 93.5618 69.4556 90.0415 69.4556 85.7019Z" fill="white"/>
<path d="M69.4556 85.7019C69.4556 81.3559 72.0415 77.8405 75.2345 77.8405C78.4275 77.8405 81.0118 81.3607 81.0118 85.7019C81.0118 90.0431 78.4259 93.5618 75.2345 93.5618C72.0431 93.5618 69.4556 90.0415 69.4556 85.7019Z" stroke="white" stroke-width="0.288" stroke-miterlimit="8"/>
<path fill-rule="evenodd" clip-rule="evenodd" d="M71.1675 86.0672C71.1675 82.7353 73.2285 80.0343 75.7694 80.0343C78.3102 80.0343 80.3713 82.7353 80.3713 86.0672C80.3713 89.3992 78.3102 92.0985 75.7694 92.0985C73.2285 92.0985 71.1675 89.3976 71.1675 86.0672Z" fill="#705D4D"/>
<path d="M71.1675 86.0672C71.1675 82.7353 73.2285 80.0343 75.7694 80.0343C78.3102 80.0343 80.3713 82.7353 80.3713 86.0672C80.3713 89.3992 78.3102 92.0985 75.7694 92.0985C73.2285 92.0985 71.1675 89.3976 71.1675 86.0672Z" stroke="#705D4D" stroke-width="0.288" stroke-miterlimit="8"/>
<path fill-rule="evenodd" clip-rule="evenodd" d="M72.8784 86.7064C72.8784 84.0312 74.5079 81.863 76.5174 81.863C78.5269 81.863 80.1564 84.0312 80.1564 86.7064C80.1564 89.3816 78.5269 91.5498 76.5174 91.5498C74.5079 91.5498 72.8784 89.3816 72.8784 86.7064Z" fill="#29211D"/>
<path d="M72.8784 86.7064C72.8784 84.0312 74.5079 81.863 76.5174 81.863C78.5269 81.863 80.1564 84.0312 80.1564 86.7064C80.1564 89.3816 78.5269 91.5498 76.5174 91.5498C74.5079 91.5498 72.8784 89.3816 72.8784 86.7064Z" stroke="#29211D" stroke-width="0.288" stroke-miterlimit="8"/>
<path fill-rule="evenodd" clip-rule="evenodd" d="M76.0899 84.4289C76.1348 84.1639 76.2544 83.9172 76.4349 83.7178C76.6153 83.5185 76.849 83.3749 77.1083 83.3039C77.3677 83.233 77.6419 83.2376 77.8988 83.3173C78.1556 83.3969 78.3843 83.5483 78.5579 83.7536C78.7315 83.9589 78.8428 84.2095 78.8787 84.4759C78.9145 84.7424 78.8734 85.0135 78.7603 85.2573C78.6471 85.5012 78.4666 85.7076 78.2399 85.8523C78.0133 85.997 77.75 86.0739 77.4811 86.074C77.0795 86.0375 76.7084 85.8445 76.4481 85.5366C76.1878 85.2288 76.0591 84.8309 76.0899 84.4289Z" fill="white"/>
<path fill-rule="evenodd" clip-rule="evenodd" d="M117.994 85.1903C117.994 80.445 115.257 76.598 111.895 76.598C108.533 76.598 105.794 80.445 105.794 85.1903C105.794 89.9355 108.531 93.7809 111.895 93.7809C115.259 93.7809 117.994 89.9339 117.994 85.1903Z" fill="#404040"/>
<path d="M117.994 85.1903C117.994 80.445 115.257 76.598 111.895 76.598C108.533 76.598 105.794 80.445 105.794 85.1903C105.794 89.9355 108.531 93.7809 111.895 93.7809C115.259 93.7809 117.994 89.9339 117.994 85.1903Z" stroke="#595959" stroke-width="0.288" stroke-miterlimit="8"/>
<path fill-rule="evenodd" clip-rule="evenodd" d="M117.35 85.3722C117.35 81.0262 114.763 77.5123 111.571 77.5123C108.38 77.5123 105.792 81.031 105.792 85.3722C105.792 89.7134 108.38 93.232 111.571 93.232C114.763 93.232 117.35 89.7134 117.35 85.3722Z" fill="white"/>
<path d="M117.35 85.3722C117.35 81.0262 114.763 77.5123 111.571 77.5123C108.38 77.5123 105.792 81.031 105.792 85.3722C105.792 89.7134 108.38 93.232 111.571 93.232C114.763 93.232 117.35 89.7134 117.35 85.3722Z" stroke="white" stroke-width="0.288" stroke-miterlimit="8"/>
<path fill-rule="evenodd" clip-rule="evenodd" d="M115.639 85.7375C115.639 82.4072 113.578 79.7062 111.037 79.7062C108.497 79.7062 106.436 82.4072 106.436 85.7375C106.436 89.0678 108.497 91.7704 111.037 91.7704C113.578 91.7704 115.639 89.0694 115.639 85.7375Z" fill="#705D4D"/>
<path d="M115.639 85.7375C115.639 82.4072 113.578 79.7062 111.037 79.7062C108.497 79.7062 106.436 82.4072 106.436 85.7375C106.436 89.0678 108.497 91.7704 111.037 91.7704C113.578 91.7704 115.639 89.0694 115.639 85.7375Z" stroke="#705D4D" stroke-width="0.288" stroke-miterlimit="8"/>
<path fill-rule="evenodd" clip-rule="evenodd" d="M113.926 86.3781C113.926 83.7029 112.298 81.5347 110.288 81.5347C108.279 81.5347 106.649 83.7029 106.649 86.3781C106.649 89.0533 108.279 91.2215 110.288 91.2215C112.298 91.2215 113.926 89.0533 113.926 86.3781Z" fill="#29211D"/>
<path d="M113.926 86.3781C113.926 83.7029 112.298 81.5347 110.288 81.5347C108.279 81.5347 106.649 83.7029 106.649 86.3781C106.649 89.0533 108.279 91.2215 110.288 91.2215C112.298 91.2215 113.926 89.0533 113.926 86.3781Z" stroke="#29211D" stroke-width="0.288" stroke-miterlimit="8"/>
<path fill-rule="evenodd" clip-rule="evenodd" d="M110.716 84.1006C110.671 83.8355 110.551 83.5888 110.371 83.3895C110.19 83.1902 109.957 83.0465 109.697 82.9756C109.438 82.9046 109.164 82.9092 108.907 82.9889C108.65 83.0686 108.421 83.22 108.248 83.4252C108.074 83.6305 107.963 83.8811 107.927 84.1476C107.891 84.414 107.932 84.6851 108.046 84.929C108.159 85.1728 108.339 85.3792 108.566 85.5239C108.792 85.6686 109.056 85.7455 109.325 85.7456C109.726 85.7092 110.097 85.5161 110.358 85.2083C110.618 84.9004 110.747 84.5025 110.716 84.1006Z" fill="white"/>
<path d="M30.2054 214.746C28.2039 234.769 25.4167 246.675 39.1097 246.15" stroke="#C1C0BF" stroke-width="3" stroke-miterlimit="10"/>
<path d="M40.357 249.263L43.1415 249.059C43.9282 249.001 44.5191 248.317 44.4614 247.531L44.2571 244.747C44.1994 243.96 43.5149 243.37 42.7282 243.427L39.9437 243.632C39.157 243.689 38.566 244.374 38.6238 245.16L38.8281 247.944C38.8858 248.73 39.5703 249.321 40.357 249.263Z" fill="#66818A"/>
<path d="M62.4991 215.171C63.7212 235.255 66.0415 247.261 52.3823 246.205" stroke="#C1C0BF" stroke-width="3" stroke-miterlimit="10"/>
<path d="M51.646 243.656L48.8714 243.344C48.0876 243.255 47.3807 243.819 47.2925 244.603L46.9803 247.376C46.8921 248.16 47.4561 248.867 48.2399 248.955L51.0145 249.267C51.7983 249.355 52.5052 248.791 52.5934 248.008L52.9056 245.234C52.9938 244.45 52.4298 243.744 51.646 243.656Z" fill="#66818A"/>
<path d="M30.7461 216.454C32.9826 182.753 61.4152 185.903 62.5391 217.977" stroke="#66818A" stroke-width="6" stroke-miterlimit="10"/>
<path d="M146.589 218.405C148.179 217.032 147.558 213.709 145.203 210.984C142.847 208.258 139.649 207.162 138.059 208.535C136.469 209.909 137.089 213.231 139.445 215.957C141.8 218.682 144.998 219.779 146.589 218.405Z" fill="#C1C0BF"/>
<path d="M136.702 208.894C135.902 207.969 134.504 207.867 133.579 208.667C132.654 209.466 132.553 210.864 133.352 211.789L142.576 222.456C143.376 223.381 144.774 223.482 145.699 222.683C146.624 221.884 146.726 220.486 145.926 219.561L136.702 208.894Z" fill="#66818A"/>
<path d="M164.58 228.868H139.219V234.584H164.58V228.868Z" fill="#B3E3EE"/>
<path d="M95.6714 196.247L90.8408 192.34L82.6289 272.311L85.648 284.814H95.6714V196.247Z" fill="#242C41"/>
<path d="M93.7827 196.247L98.6133 192.34L106.825 272.311L103.806 284.814H93.7827V196.247Z" fill="#242C41"/>
<path d="M97.3704 189.572H92.0536C89.4338 189.572 87.3101 191.695 87.3101 194.314V196.067C87.3101 198.686 89.4338 200.809 92.0536 200.809H97.3704C99.9903 200.809 102.114 198.686 102.114 196.067V194.314C102.114 191.695 99.9903 189.572 97.3704 189.572Z" fill="#242C41"/>
<path d="M94.8277 50.9451C123.256 50.9451 146.302 40.4688 146.302 27.5458C146.302 14.6227 123.256 4.14648 94.8277 4.14648C66.3993 4.14648 43.3535 14.6227 43.3535 27.5458C43.3535 40.4688 66.3993 50.9451 94.8277 50.9451Z" fill="#461F15"/>
<path d="M71.49 16.7531C60.3299 17.5451 48.2519 12.5971 44.1991 9.64821L43.6548 9.59509C43.1348 15.5073 40.932 24.0448 50.2566 29.1892" fill="#461F15"/>
<path d="M59.6786 54.0259C61.3951 33.9197 57.7259 17.1887 51.4834 16.6561C45.2408 16.1236 38.7888 31.9911 37.0723 52.0973C35.3558 72.2034 39.0249 88.9344 45.2675 89.467C51.5101 89.9996 57.9621 74.132 59.6786 54.0259Z" fill="#461F15"/>
<path d="M144.249 89.3604C150.962 88.7877 155.011 72.0005 153.292 51.8651C151.573 31.7298 144.737 15.8711 138.024 16.4438C131.311 17.0165 127.263 33.8037 128.982 53.939C130.701 74.0744 137.536 89.9331 144.249 89.3604Z" fill="#461F15"/>
<path d="M66.6058 7.94348C60.9808 9.40952 55.0896 9.53083 49.4091 8.2976L49.0967 8.34589C50.8824 11.1949 52.6777 15.5023 59.5033 16.6581" fill="#461F15"/>
<path d="M136.541 94.4534L147.391 90.6724L131.224 44.3146L120.375 48.0957L136.541 94.4534Z" fill="#FEC198"/>
<path d="M45.134 102.813C48.8252 101.96 50.0675 93.6951 47.9088 84.3516C45.7501 75.0082 41.0079 68.1247 37.3167 68.9769C33.6256 69.8292 32.3833 78.0944 34.542 87.4378C36.7006 96.7813 41.4429 103.665 45.134 102.813Z" fill="#FEC198"/>
<path d="M154.422 87.4371C156.58 78.0936 155.338 69.8284 151.647 68.9762C147.956 68.124 143.213 75.0074 141.055 84.3509C138.896 93.6943 140.138 101.96 143.829 102.812C147.521 103.664 152.263 96.7805 154.422 87.4371Z" fill="#FEC198"/>
<path d="M69.7503 48.191L58.9004 44.4099L42.7342 90.7677L53.5841 94.5488L69.7503 48.191Z" fill="#FEC198"/>
<path d="M148.23 80.3081C148.23 80.3081 151.839 87.5305 145.612 92.6685L148.23 80.3081Z" fill="#F2A973"/>
<path d="M40.3625 80.4872C40.3625 80.4872 37.1861 88.1956 43.9544 93.023L40.3625 80.4872Z" fill="#F2A973"/>
</svg>
