<svg width="677" height="450" viewBox="0 0 677 450" fill="none" xmlns="http://www.w3.org/2000/svg">
<g filter="url(#filter0_d)">
<path d="M180.057 93.1212C217.841 93.1212 248.472 79.1972 248.472 62.021C248.472 44.8448 217.841 30.9208 180.057 30.9208C142.272 30.9208 111.642 44.8448 111.642 62.021C111.642 79.1972 142.272 93.1212 180.057 93.1212Z" fill="#34130C"/>
<path d="M149.031 47.6764C134.198 48.729 118.145 42.1526 112.759 38.2332L112.035 38.1605C111.344 46.0206 108.416 57.3678 120.81 64.2053" fill="#34130C"/>
<path d="M133.34 97.2159C135.621 70.4926 130.745 48.2553 122.448 47.5475C114.151 46.8396 105.575 67.9293 103.294 94.6526C101.013 121.376 105.889 143.613 114.186 144.321C122.483 145.029 131.059 123.939 133.34 97.2159Z" fill="#34130C"/>
<path d="M245.744 144.179C254.667 143.418 260.047 121.106 257.763 94.3441C255.478 67.582 246.393 46.5041 237.471 47.2653C228.549 48.0264 223.168 70.3385 225.453 97.1006C227.737 123.863 236.822 144.941 245.744 144.179Z" fill="#34130C"/>
<path d="M142.547 35.9676C135.071 37.9161 127.241 38.0773 119.691 36.4382L119.276 36.5024C121.649 40.2891 124.035 46.0141 133.107 47.5502" fill="#34130C"/>
<path d="M205.709 261.725C220.192 261.725 268.469 254.064 284.883 287.991C303.245 312.982 309.021 363.505 314.815 409.47H57.6401V408.409C63.4334 362.444 69.2094 311.922 87.5718 286.931C103.986 253.004 152.263 260.665 166.746 260.665" fill="white"/>
<path d="M119.926 288.485C131.763 215.686 259.737 229.011 248.989 313.482" stroke="#66818A" stroke-width="6" stroke-miterlimit="10"/>
<path d="M216.003 211.19C210.867 248.49 220.551 292.937 221.882 292.937H146.677C148.008 292.937 157.692 248.49 152.556 211.19H215.843" fill="#FEC198"/>
<path d="M145.718 294.572C147.049 294.572 156.733 250.124 151.597 212.826C151.597 209.955 179.737 207.632 214.516 207.632C193.346 260.261 147.291 297.409 145.72 294.403L145.718 294.572Z" fill="#FFB587"/>
<path d="M113.311 122.446C113.311 175.881 148.661 232.196 183.763 232.196C218.865 232.196 254.065 175.881 254.065 122.446C254.065 69.0103 220.836 49.2788 185.732 49.2788C150.628 49.2788 113.311 69.0103 113.311 122.446Z" fill="#FEC198"/>
<path d="M236.669 152.229L254.25 144.411L226.529 82.1209L208.949 89.9394L236.669 152.229Z" fill="#FEC198"/>
<path d="M163.855 129.966C161.792 129.249 149.499 123.762 146.27 138.222" stroke="#F5A574" stroke-width="0.9" stroke-miterlimit="10"/>
<path d="M156.406 149.834C158.092 149.834 159.458 148.346 159.458 146.51C159.458 144.673 158.092 143.185 156.406 143.185C154.721 143.185 153.354 144.673 153.354 146.51C153.354 148.346 154.721 149.834 156.406 149.834Z" fill="white"/>
<path d="M179.703 178.202C164.016 179.824 174.475 163.655 177.43 155.621C175.63 163.918 175.628 176.504 179.987 178.172" fill="#F2A973"/>
<path d="M187.677 178.81C193.241 178.81 193.241 178.81 193.241 174.138V173.496C193.115 174.85 192.46 176.099 191.418 176.974C190.377 177.848 189.033 178.278 187.677 178.168" fill="#F2A973"/>
<path d="M163.935 196.806C170.345 200.355 177.552 202.217 184.879 202.217C192.206 202.217 199.413 200.355 205.823 196.806" stroke="#F2A973" stroke-width="2" stroke-miterlimit="10"/>
<path d="M175.408 208.759C175.408 208.759 183.808 215.438 192.208 208.759H175.408Z" fill="#F2A973"/>
<path d="M204.725 193.578C204.964 195.076 206.922 199.568 207.451 199.478" stroke="#F2A973" stroke-width="0.9" stroke-miterlimit="10"/>
<path d="M199.491 129.966C201.554 129.249 213.847 123.762 217.076 138.22" stroke="#F5A574" stroke-width="0.9" stroke-miterlimit="10"/>
<path d="M170.933 409.47H195.858L215.902 263.934L217.89 260.473L182.375 296.239L149.899 260.473" fill="#3D7689"/>
<path d="M216.625 261.29L179.495 288.143L189.709 302.256L226.838 275.403L216.625 261.29Z" fill="white"/>
<path d="M215.672 261.056L223.762 261.152L246.839 299.977L228.348 306.154L238.574 312.606L194.725 409.47L215.664 261.06" fill="#B3E3EE"/>
<path d="M140.283 273.769L177.412 300.622L187.626 286.509L150.496 259.656L140.283 273.769Z" fill="white"/>
<path d="M151.918 259.923L143.017 260.019L119.951 300.125L138.434 306.294L128.212 312.737L170.933 409.47L151.926 260.594" fill="#B3E3EE"/>
<path fill-rule="evenodd" clip-rule="evenodd" d="M149.1 144.584C149.1 138.277 152.738 133.166 157.206 133.166C161.675 133.166 165.313 138.277 165.313 144.584C165.313 150.891 161.675 156.002 157.206 156.002C152.738 156.002 149.1 150.891 149.1 144.584Z" fill="#404040"/>
<path d="M149.1 144.584C149.1 138.277 152.738 133.166 157.206 133.166C161.675 133.166 165.313 138.277 165.313 144.584C165.313 150.891 161.675 156.002 157.206 156.002C152.738 156.002 149.1 150.891 149.1 144.584Z" stroke="#595959" stroke-width="0.288" stroke-miterlimit="8"/>
<path fill-rule="evenodd" clip-rule="evenodd" d="M149.953 144.828C149.953 139.052 153.39 134.379 157.634 134.379C161.878 134.379 165.313 139.058 165.313 144.828C165.313 150.598 161.876 155.275 157.634 155.275C153.392 155.275 149.953 150.596 149.953 144.828Z" fill="white"/>
<path d="M149.953 144.828C149.953 139.052 153.39 134.379 157.634 134.379C161.878 134.379 165.313 139.058 165.313 144.828C165.313 150.598 161.876 155.275 157.634 155.275C153.392 155.275 149.953 150.596 149.953 144.828Z" stroke="white" stroke-width="0.288" stroke-miterlimit="8"/>
<path fill-rule="evenodd" clip-rule="evenodd" d="M152.229 145.314C152.229 140.885 154.968 137.295 158.345 137.295C161.722 137.295 164.461 140.885 164.461 145.314C164.461 149.742 161.722 153.33 158.345 153.33C154.968 153.33 152.229 149.74 152.229 145.314Z" fill="#705D4D"/>
<path d="M152.229 145.314C152.229 140.885 154.968 137.295 158.345 137.295C161.722 137.295 164.461 140.885 164.461 145.314C164.461 149.742 161.722 153.33 158.345 153.33C154.968 153.33 152.229 149.74 152.229 145.314Z" stroke="#705D4D" stroke-width="0.288" stroke-miterlimit="8"/>
<path fill-rule="evenodd" clip-rule="evenodd" d="M154.503 146.163C154.503 142.607 156.669 139.726 159.34 139.726C162.01 139.726 164.176 142.607 164.176 146.163C164.176 149.719 162.01 152.6 159.34 152.6C156.669 152.6 154.503 149.719 154.503 146.163Z" fill="#29211D"/>
<path d="M154.503 146.163C154.503 142.607 156.669 139.726 159.34 139.726C162.01 139.726 164.176 142.607 164.176 146.163C164.176 149.719 162.01 152.6 159.34 152.6C156.669 152.6 154.503 149.719 154.503 146.163Z" stroke="#29211D" stroke-width="0.288" stroke-miterlimit="8"/>
<path fill-rule="evenodd" clip-rule="evenodd" d="M158.77 143.136C158.83 142.783 158.989 142.456 159.229 142.191C159.468 141.926 159.779 141.735 160.124 141.641C160.468 141.546 160.833 141.552 161.174 141.658C161.516 141.764 161.82 141.965 162.05 142.238C162.281 142.511 162.429 142.844 162.477 143.198C162.524 143.552 162.47 143.913 162.319 144.237C162.169 144.561 161.929 144.835 161.628 145.028C161.327 145.22 160.977 145.322 160.619 145.322C160.085 145.274 159.592 145.017 159.246 144.608C158.9 144.199 158.729 143.67 158.77 143.136Z" fill="white"/>
<path fill-rule="evenodd" clip-rule="evenodd" d="M214.466 144.148C214.466 137.841 210.827 132.728 206.359 132.728C201.89 132.728 198.25 137.841 198.25 144.148C198.25 150.454 201.888 155.565 206.359 155.565C210.83 155.565 214.466 150.452 214.466 144.148Z" fill="#404040"/>
<path d="M214.466 144.148C214.466 137.841 210.827 132.728 206.359 132.728C201.89 132.728 198.25 137.841 198.25 144.148C198.25 150.454 201.888 155.565 206.359 155.565C210.83 155.565 214.466 150.452 214.466 144.148Z" stroke="#595959" stroke-width="0.288" stroke-miterlimit="8"/>
<path fill-rule="evenodd" clip-rule="evenodd" d="M213.611 144.389C213.611 138.613 210.172 133.943 205.93 133.943C201.689 133.943 198.25 138.619 198.25 144.389C198.25 150.159 201.689 154.836 205.93 154.836C210.172 154.836 213.611 150.159 213.611 144.389Z" fill="white"/>
<path d="M213.611 144.389C213.611 138.613 210.172 133.943 205.93 133.943C201.689 133.943 198.25 138.619 198.25 144.389C198.25 150.159 201.689 154.836 205.93 154.836C210.172 154.836 213.611 150.159 213.611 144.389Z" stroke="white" stroke-width="0.288" stroke-miterlimit="8"/>
<path fill-rule="evenodd" clip-rule="evenodd" d="M211.337 144.875C211.337 140.449 208.598 136.859 205.221 136.859C201.844 136.859 199.104 140.449 199.104 144.875C199.104 149.301 201.844 152.893 205.221 152.893C208.598 152.893 211.337 149.304 211.337 144.875Z" fill="#705D4D"/>
<path d="M211.337 144.875C211.337 140.449 208.598 136.859 205.221 136.859C201.844 136.859 199.104 140.449 199.104 144.875C199.104 149.301 201.844 152.893 205.221 152.893C208.598 152.893 211.337 149.304 211.337 144.875Z" stroke="#705D4D" stroke-width="0.288" stroke-miterlimit="8"/>
<path fill-rule="evenodd" clip-rule="evenodd" d="M209.06 145.726C209.06 142.171 206.897 139.289 204.226 139.289C201.555 139.289 199.389 142.171 199.389 145.726C199.389 149.282 201.555 152.164 204.226 152.164C206.897 152.164 209.06 149.282 209.06 145.726Z" fill="#29211D"/>
<path d="M209.06 145.726C209.06 142.171 206.897 139.289 204.226 139.289C201.555 139.289 199.389 142.171 199.389 145.726C199.389 149.282 201.555 152.164 204.226 152.164C206.897 152.164 209.06 149.282 209.06 145.726Z" stroke="#29211D" stroke-width="0.288" stroke-miterlimit="8"/>
<path fill-rule="evenodd" clip-rule="evenodd" d="M204.795 142.699C204.735 142.347 204.576 142.019 204.337 141.754C204.097 141.489 203.786 141.298 203.441 141.204C203.097 141.11 202.732 141.116 202.391 141.222C202.05 141.328 201.746 141.529 201.515 141.802C201.284 142.075 201.136 142.408 201.089 142.762C201.041 143.116 201.095 143.476 201.246 143.8C201.396 144.124 201.636 144.399 201.937 144.591C202.239 144.783 202.589 144.886 202.946 144.886C203.48 144.837 203.973 144.581 204.319 144.172C204.665 143.762 204.836 143.233 204.795 142.699Z" fill="white"/>
<path d="M92.3161 315.262C84.6825 340.894 78.0587 355.736 96.0628 358.485" stroke="#C1C0BF" stroke-width="3" stroke-miterlimit="10"/>
<path d="M96.9113 362.86L100.597 363.292C101.638 363.414 102.581 362.669 102.703 361.628L103.135 357.944C103.256 356.903 102.511 355.96 101.47 355.838L97.7841 355.406C96.7429 355.284 95.7999 356.029 95.6781 357.07L95.2466 360.755C95.1247 361.796 95.87 362.738 96.9113 362.86Z" fill="#66818A"/>
<path d="M134.361 323.915C130.92 350.435 130.937 366.688 113.374 361.885" stroke="#C1C0BF" stroke-width="3" stroke-miterlimit="10"/>
<path d="M113.051 358.372L109.508 357.269C108.507 356.957 107.443 357.516 107.132 358.517L106.029 362.059C105.717 363.059 106.276 364.123 107.277 364.435L110.82 365.538C111.821 365.849 112.885 365.291 113.197 364.29L114.3 360.748C114.611 359.748 114.052 358.684 113.051 358.372Z" fill="#66818A"/>
<path d="M92.5942 317.626C103.965 274.2 140.286 285.441 133.71 327.587" stroke="#66818A" stroke-width="6" stroke-miterlimit="10"/>
<path d="M252.471 321.205C254.584 319.38 253.759 314.964 250.629 311.341C247.498 307.719 243.247 306.262 241.134 308.087C239.02 309.912 239.845 314.328 242.976 317.951C246.106 321.573 250.357 323.03 252.471 321.205Z" fill="#C1C0BF"/>
<path d="M239.331 308.563C238.269 307.334 236.41 307.199 235.181 308.262C233.951 309.324 233.816 311.182 234.879 312.411L247.139 326.589C248.202 327.818 250.06 327.953 251.29 326.89C252.519 325.828 252.654 323.97 251.591 322.741L239.331 308.563Z" fill="#66818A"/>
<path d="M276.384 335.111H242.678V342.708H276.384V335.111Z" fill="#B3E3EE"/>
<path d="M184.798 291.755L178.378 286.561L167.463 392.852L171.476 409.47H184.798V291.755Z" fill="#242C41"/>
<path d="M182.288 291.755L188.708 286.561L199.622 392.852L195.61 409.47H182.288V291.755Z" fill="#242C41"/>
<path d="M187.055 282.882H179.989C176.507 282.882 173.684 285.704 173.684 289.185V291.515C173.684 294.996 176.507 297.817 179.989 297.817H187.055C190.537 297.817 193.36 294.996 193.36 291.515V289.185C193.36 285.704 190.537 282.882 187.055 282.882Z" fill="#242C41"/>
<path d="M183.675 98.6322C221.46 98.6322 252.09 84.7081 252.09 67.532C252.09 50.3558 221.46 36.4318 183.675 36.4318C145.891 36.4318 115.26 50.3558 115.26 67.532C115.26 84.7081 145.891 98.6322 183.675 98.6322Z" fill="#461F15"/>
<path d="M152.657 53.1874C137.824 54.2399 121.771 47.6635 116.384 43.7441L115.661 43.6735C114.97 51.5315 112.042 62.8788 124.435 69.7162" fill="#461F15"/>
<path d="M136.958 102.727C139.24 76.0037 134.363 53.7664 126.066 53.0585C117.769 52.3507 109.193 73.4404 106.912 100.164C104.631 126.887 109.507 149.124 117.804 149.832C126.101 150.54 134.677 129.45 136.958 102.727Z" fill="#461F15"/>
<path d="M249.362 149.69C258.284 148.929 263.665 126.617 261.38 99.8551C259.096 73.093 250.011 52.0151 241.089 52.7763C232.166 53.5374 226.786 75.8495 229.07 102.612C231.355 129.374 240.44 150.452 249.362 149.69Z" fill="#461F15"/>
<path d="M146.166 41.4786C138.689 43.4271 130.859 43.5883 123.309 41.9492L122.894 42.0134C125.267 45.8001 127.654 51.5251 136.726 53.0612" fill="#461F15"/>
<path d="M239.118 156.46L253.539 151.434L232.052 89.8197L217.632 94.8452L239.118 156.46Z" fill="#FEC198"/>
<path d="M117.628 167.57C122.534 166.437 124.185 155.451 121.316 143.033C118.447 130.615 112.144 121.466 107.238 122.598C102.332 123.731 100.681 134.716 103.55 147.135C106.419 159.553 112.722 168.702 117.628 167.57Z" fill="#FEC198"/>
<path d="M262.884 147.134C265.754 134.716 264.102 123.73 259.196 122.598C254.29 121.465 247.988 130.614 245.118 143.032C242.249 155.451 243.9 166.436 248.806 167.569C253.712 168.702 260.015 159.553 262.884 147.134Z" fill="#FEC198"/>
<path d="M150.345 94.9719L135.925 89.9464L114.438 151.561L128.859 156.586L150.345 94.9719Z" fill="#FEC198"/>
<path d="M171.804 121.125C166.165 117.916 151.578 118.117 141.808 124.165C144.802 115.65 172.136 106.986 171.804 121.125Z" fill="#5C2E1F"/>
<path d="M192.007 121.125C197.648 117.916 212.235 118.117 222.003 124.165C219.009 115.65 191.677 106.986 192.007 121.125Z" fill="#5C2E1F"/>
<path d="M254.656 137.659C254.656 137.659 259.452 147.258 251.176 154.087L254.656 137.659Z" fill="#F2A973"/>
<path d="M111.287 137.897C111.287 137.897 107.065 148.142 116.061 154.558L111.287 137.897Z" fill="#F2A973"/>
</g>
<g filter="url(#filter1_d)">
<path d="M497.589 309.557H465.978C426.034 309.557 393.306 276.829 393.306 236.884V106.073C393.306 66.1285 426.034 33.4004 465.978 33.4004H497.589C537.533 33.4004 570.261 66.1285 570.261 106.073V236.986C570.261 276.829 537.533 309.557 497.589 309.557Z" fill="#461F15"/>
<path d="M419.122 280.793C440.117 280.793 457.136 231.282 457.136 170.208C457.136 109.134 440.117 59.6235 419.122 59.6235C398.128 59.6235 381.109 109.134 381.109 170.208C381.109 231.282 398.128 280.793 419.122 280.793Z" fill="#461F15"/>
<path d="M545.867 282.826C565.065 282.826 580.628 233.907 580.628 173.562C580.628 113.218 565.065 64.299 545.867 64.299C526.669 64.299 511.106 113.218 511.106 173.562C511.106 233.907 526.669 282.826 545.867 282.826Z" fill="#461F15"/>
<path d="M481.355 289.962C510.763 289.962 534.603 243.804 534.603 186.866C534.603 129.927 510.763 83.7695 481.355 83.7695C451.947 83.7695 428.107 129.927 428.107 186.866C428.107 243.804 451.947 289.962 481.355 289.962Z" fill="#34130C"/>
<path d="M503.586 266.804C518.832 266.804 569.652 259.435 586.931 292.069C606.242 316.071 612.341 364.706 618.439 408.92H347.669V407.867C353.768 363.653 359.866 315.018 379.178 291.016C396.457 258.382 447.277 265.751 462.523 265.751" fill="white"/>
<path d="M544.087 290.862C532.25 218.063 404.276 231.387 415.024 315.859" stroke="#66818A" stroke-width="6" stroke-miterlimit="10"/>
<path d="M578.392 344.216H542.818V352.246H578.392V344.216Z" fill="#FDFFFF"/>
<path d="M514.664 213.405C509.277 252.74 519.441 299.698 520.864 299.698H441.483C442.906 299.698 453.07 252.74 447.683 213.405H514.461" fill="#FEC198"/>
<path d="M440.467 301.426C441.89 301.426 452.054 254.468 446.667 215.133C446.667 212.084 476.346 209.644 513.038 209.644C490.677 265.242 442.093 304.475 440.467 301.222V301.426Z" fill="#FFB587"/>
<path d="M406.316 119.693C406.316 176.103 443.618 235.563 480.717 235.563C517.815 235.563 554.914 176.103 554.914 119.693C554.914 63.2826 519.848 42.4464 482.749 42.4464C445.651 42.4464 406.316 63.2826 406.316 119.693Z" fill="#FEC198"/>
<path d="M410.878 167.333C416.074 166.133 417.828 154.52 414.797 141.394C411.766 128.268 405.097 118.599 399.901 119.799C394.705 120.999 392.95 132.613 395.982 145.739C399.013 158.865 405.682 168.533 410.878 167.333Z" fill="#FEC198"/>
<path d="M564.159 145.724C567.19 132.598 565.435 120.984 560.24 119.784C555.044 118.584 548.375 128.253 545.343 141.379C542.312 154.505 544.067 166.118 549.262 167.318C554.458 168.518 561.127 158.85 564.159 145.724Z" fill="#FEC198"/>
<path d="M453.291 83.2458L434.717 74.9825L405.465 140.734L424.038 148.997L453.291 83.2458Z" fill="#FEC198"/>
<path d="M536.458 151.163L555.032 142.899L525.779 77.1483L507.206 85.4116L536.458 151.163Z" fill="#FEC198"/>
<path d="M466.515 123.165C458.099 121.316 448.5 117.673 434.905 127.55C438.056 118.504 462.064 110.553 466.515 123.165Z" fill="#5C2E1F"/>
<path d="M490.418 123.165C498.835 121.316 508.433 117.673 522.029 127.55C518.878 118.504 494.869 110.553 490.418 123.165Z" fill="#5C2E1F"/>
<path d="M459.677 128.488C457.542 127.777 444.532 121.983 441.077 137.229" stroke="#F5A574" stroke-miterlimit="10"/>
<path d="M451.75 148.66C453.546 148.66 455.002 147.068 455.002 145.103C455.002 143.138 453.546 141.546 451.75 141.546C449.953 141.546 448.497 143.138 448.497 145.103C448.497 147.068 449.953 148.66 451.75 148.66Z" fill="white"/>
<path d="M476.346 178.543C459.778 180.271 470.857 163.195 473.906 154.657C471.975 163.398 471.975 176.713 476.651 178.441" fill="#F2A973"/>
<path d="M484.782 179.152C490.677 179.152 490.677 179.152 490.677 174.172V173.461C490.677 176.205 488.035 178.441 484.782 178.441" fill="#F2A973"/>
<path d="M459.677 198.159C459.677 198.159 480.615 211.169 503.89 198.159" stroke="#F2A973" stroke-width="2" stroke-miterlimit="10"/>
<path d="M471.772 210.864C471.772 210.864 480.614 217.877 489.457 210.864H471.772Z" fill="#F2A973"/>
<path d="M502.773 194.805C502.976 196.33 505.11 201.107 505.619 201.005" stroke="#F2A973" stroke-miterlimit="10"/>
<path d="M497.284 128.488C499.418 127.777 512.428 121.983 515.884 137.229" stroke="#F5A574" stroke-miterlimit="10"/>
<path d="M466.771 408.92H487.131L514.108 267.784L514.21 265.038L481.023 292.293L443.968 265.038" fill="#3D7689"/>
<path d="M516.869 263.332L480.963 290.364L492.029 305.062L527.934 278.029L516.869 263.332Z" fill="white"/>
<path d="M434.744 279.328L470.782 305.423L481.572 290.522L445.533 264.427L434.744 279.328Z" fill="white"/>
<path d="M567.265 100.101C573.344 86.4376 550.266 62.9016 515.719 47.532C481.172 32.1623 448.239 30.7792 442.16 44.4427C436.081 58.1061 459.159 81.6421 493.706 97.0118C528.252 112.381 561.186 113.765 567.265 100.101Z" fill="#461F15"/>
<path fill-rule="evenodd" clip-rule="evenodd" d="M444.024 143.07C444.024 136.362 447.886 130.975 452.562 130.975C457.237 130.975 461.099 136.362 461.099 143.07C461.099 149.778 457.237 155.165 452.562 155.165C447.886 155.165 444.024 149.677 444.024 143.07Z" fill="#404040"/>
<path d="M444.024 143.07C444.024 136.362 447.886 130.975 452.562 130.975C457.237 130.975 461.099 136.362 461.099 143.07C461.099 149.778 457.237 155.165 452.562 155.165C447.886 155.165 444.024 149.677 444.024 143.07Z" stroke="#595959" stroke-width="0.6392" stroke-miterlimit="8"/>
<path fill-rule="evenodd" clip-rule="evenodd" d="M444.939 143.274C444.939 137.175 448.598 132.195 453.07 132.195C457.542 132.195 461.201 137.175 461.201 143.274C461.201 149.372 457.542 154.352 453.07 154.352C448.598 154.352 444.939 149.372 444.939 143.274Z" fill="white"/>
<path d="M444.939 143.274C444.939 137.175 448.598 132.195 453.07 132.195C457.542 132.195 461.201 137.175 461.201 143.274C461.201 149.372 457.542 154.352 453.07 154.352C448.598 154.352 444.939 149.372 444.939 143.274Z" stroke="white" stroke-width="0.6392" stroke-miterlimit="8"/>
<path fill-rule="evenodd" clip-rule="evenodd" d="M447.378 143.883C447.378 139.208 450.224 135.447 453.883 135.447C457.542 135.447 460.388 139.208 460.388 143.883C460.388 148.559 457.542 152.319 453.883 152.319C450.224 152.319 447.378 148.559 447.378 143.883Z" fill="#705D4D"/>
<path d="M447.378 143.883C447.378 139.208 450.224 135.447 453.883 135.447C457.542 135.447 460.388 139.208 460.388 143.883C460.388 148.559 457.542 152.319 453.883 152.319C450.224 152.319 447.378 148.559 447.378 143.883Z" stroke="#705D4D" stroke-width="0.6392" stroke-miterlimit="8"/>
<path fill-rule="evenodd" clip-rule="evenodd" d="M449.716 144.696C449.716 140.936 451.952 137.886 454.798 137.886C457.644 137.886 459.88 140.936 459.88 144.696C459.88 148.457 457.644 151.506 454.798 151.506C452.054 151.506 449.716 148.457 449.716 144.696Z" fill="#29211D"/>
<path d="M449.716 144.696C449.716 140.936 451.952 137.886 454.798 137.886C457.644 137.886 459.88 140.936 459.88 144.696C459.88 148.457 457.644 151.506 454.798 151.506C452.054 151.506 449.716 148.457 449.716 144.696Z" stroke="#29211D" stroke-width="0.6392" stroke-miterlimit="8"/>
<path fill-rule="evenodd" clip-rule="evenodd" d="M454.29 141.546C454.29 140.224 455.204 139.208 456.221 139.208C457.237 139.208 458.152 140.224 458.152 141.546C458.152 142.867 457.237 143.883 456.221 143.883C455.204 143.883 454.29 142.765 454.29 141.546Z" fill="white"/>
<path fill-rule="evenodd" clip-rule="evenodd" d="M513.038 142.562C513.038 135.854 509.176 130.467 504.5 130.467C499.825 130.467 495.963 135.854 495.963 142.562C495.963 149.27 499.825 154.657 504.5 154.657C509.176 154.657 513.038 149.27 513.038 142.562Z" fill="#404040"/>
<path d="M513.038 142.562C513.038 135.854 509.176 130.467 504.5 130.467C499.825 130.467 495.963 135.854 495.963 142.562C495.963 149.27 499.825 154.657 504.5 154.657C509.176 154.657 513.038 149.27 513.038 142.562Z" stroke="#595959" stroke-width="0.6392" stroke-miterlimit="8"/>
<path fill-rule="evenodd" clip-rule="evenodd" d="M512.123 142.867C512.123 136.768 508.464 131.788 503.992 131.788C499.52 131.788 495.861 136.768 495.861 142.867C495.861 148.965 499.52 153.946 503.992 153.946C508.464 153.844 512.123 148.965 512.123 142.867Z" fill="white"/>
<path d="M512.123 142.867C512.123 136.768 508.464 131.788 503.992 131.788C499.52 131.788 495.861 136.768 495.861 142.867C495.861 148.965 499.52 153.946 503.992 153.946C508.464 153.844 512.123 148.965 512.123 142.867Z" stroke="white" stroke-width="0.6392" stroke-miterlimit="8"/>
<path fill-rule="evenodd" clip-rule="evenodd" d="M509.785 143.375C509.785 138.7 506.939 134.939 503.28 134.939C499.723 134.939 496.775 138.7 496.775 143.375C496.775 148.05 499.621 151.811 503.28 151.811C506.838 151.811 509.785 148.05 509.785 143.375Z" fill="#705D4D"/>
<path d="M509.785 143.375C509.785 138.7 506.939 134.939 503.28 134.939C499.723 134.939 496.775 138.7 496.775 143.375C496.775 148.05 499.621 151.811 503.28 151.811C506.838 151.811 509.785 148.05 509.785 143.375Z" stroke="#705D4D" stroke-width="0.6392" stroke-miterlimit="8"/>
<path fill-rule="evenodd" clip-rule="evenodd" d="M507.345 144.29C507.345 140.529 505.109 137.48 502.263 137.48C499.417 137.48 497.181 140.529 497.181 144.29C497.181 148.05 499.417 151.1 502.263 151.1C505.008 151.1 507.345 148.05 507.345 144.29Z" fill="#29211D"/>
<path d="M507.345 144.29C507.345 140.529 505.109 137.48 502.263 137.48C499.417 137.48 497.181 140.529 497.181 144.29C497.181 148.05 499.417 151.1 502.263 151.1C505.008 151.1 507.345 148.05 507.345 144.29Z" stroke="#29211D" stroke-width="0.6392" stroke-miterlimit="8"/>
<path fill-rule="evenodd" clip-rule="evenodd" d="M502.873 141.037C502.873 139.716 501.959 138.7 500.942 138.7C499.926 138.7 499.011 139.716 499.011 141.037C499.011 142.359 499.926 143.375 500.942 143.375C501.959 143.375 502.873 142.359 502.873 141.037Z" fill="white"/>
<path d="M403.876 141.952C403.876 141.952 401.132 152.929 411.296 158.011L403.876 141.952Z" fill="#F2A973"/>
<path d="M428.653 120.164C443.736 86.2615 448.937 55.6518 440.269 51.7954C431.601 47.9391 412.347 72.2964 397.264 106.199C382.18 140.102 376.98 170.711 385.648 174.568C394.316 178.424 413.57 154.067 428.653 120.164Z" fill="#461F15"/>
<path d="M552.068 141.444C552.068 141.444 557.15 151.608 548.409 158.824L552.068 141.444Z" fill="#F2A973"/>
<path d="M506.823 266.171L514.034 266.263L534.603 303.606L518.121 309.547L527.236 315.753L488.153 408.92L506.816 266.174" fill="#B3E3EE"/>
<path d="M569.374 339.811H539.134V346.627H569.374V339.811Z" fill="#B3E3EE"/>
<path d="M449.724 265.038L441.812 265.13L421.31 303.717L437.738 309.652L428.653 315.851L466.627 408.92L449.732 265.683" fill="#B3E3EE"/>
<path d="M442.267 51.6956C441.86 84.3221 472.291 89.4634 510.351 109.732C588.41 151.303 537.387 214.015 529.662 229.871C486.059 281.911 502.772 295.531 525.845 308.947L524.625 308.744C522.694 259.143 560.809 251.825 575.445 204.969V206.189C588.354 168.785 578.291 110.82 528.691 85.3087C495.516 70.1743 464.003 80.6631 442.658 51.4923" fill="#5C2E1F"/>
<path d="M573.837 311.646C582.052 337.097 589.011 351.784 571.074 354.942" stroke="#C1C0BF" stroke-width="3" stroke-miterlimit="10"/>
<path d="M570.326 359.336L566.651 359.852C565.613 359.997 564.653 359.274 564.508 358.236L563.993 354.562C563.847 353.525 564.571 352.565 565.609 352.419L569.284 351.904C570.322 351.758 571.282 352.482 571.427 353.52L571.942 357.193C572.088 358.231 571.364 359.191 570.326 359.336Z" fill="#66818A"/>
<path d="M532 321.253C536.044 347.688 536.396 363.937 553.846 358.735" stroke="#C1C0BF" stroke-width="3" stroke-miterlimit="10"/>
<path d="M554.088 355.216L557.605 354.033C558.599 353.699 559.675 354.233 560.01 355.226L561.193 358.742C561.527 359.735 560.993 360.812 559.999 361.146L556.482 362.329C555.488 362.664 554.412 362.129 554.077 361.136L552.894 357.62C552.56 356.627 553.094 355.551 554.088 355.216Z" fill="#66818A"/>
<path d="M573.613 314.016C561.257 270.859 525.201 282.924 532.734 324.909" stroke="#66818A" stroke-width="6" stroke-miterlimit="10"/>
<path d="M411.542 320.582C409.428 318.757 410.253 314.341 413.383 310.718C416.514 307.096 420.765 305.639 422.879 307.464C424.992 309.289 424.167 313.705 421.037 317.328C417.906 320.95 413.655 322.407 411.542 320.582Z" fill="#C1C0BF"/>
<path d="M424.681 307.94C425.744 306.711 427.602 306.576 428.832 307.639C430.061 308.701 430.197 310.559 429.134 311.788L416.874 325.966C415.811 327.195 413.953 327.33 412.723 326.267C411.494 325.205 411.359 323.347 412.421 322.118L424.681 307.94Z" fill="#66818A"/>
</g>
<circle cx="662.02" cy="414.843" r="5.84307" fill="#12B6CB"/>
<path fill-rule="evenodd" clip-rule="evenodd" d="M9.64106 409C4.31645 409 0 413.316 0 418.641C0 423.966 4.31645 428.282 9.64107 428.282H23.957L27.7548 428.282C30.4978 428.282 32.7214 430.506 32.7214 433.249C32.7214 435.992 30.4978 438.215 27.7548 438.215H23.957V438.215H16.9451C13.7181 438.215 11.1021 440.831 11.1021 444.059C11.1021 447.286 13.7181 449.902 16.9451 449.902H61.9367L61.9662 449.902H666.987C672.311 449.902 676.628 445.585 676.628 440.26C676.628 434.936 672.311 430.619 666.987 430.619H651.233C651.225 430.619 651.218 430.619 651.211 430.619H610.893C608.15 430.619 605.927 428.396 605.927 425.653C605.927 422.91 608.15 420.686 610.893 420.686L622.287 420.686H641.569C644.796 420.686 647.412 418.07 647.412 414.843C647.412 411.616 644.796 409 641.569 409H63.3973H9.93291H9.64106Z" fill="#12B6CB"/>
<defs>
<filter id="filter0_d" x="27.6401" y="0.920776" width="317.174" height="438.549" filterUnits="userSpaceOnUse" color-interpolation-filters="sRGB">
<feFlood flood-opacity="0" result="BackgroundImageFix"/>
<feColorMatrix in="SourceAlpha" type="matrix" values="0 0 0 0 0 0 0 0 0 0 0 0 0 0 0 0 0 0 127 0"/>
<feOffset/>
<feGaussianBlur stdDeviation="15"/>
<feColorMatrix type="matrix" values="0 0 0 0 0 0 0 0 0 0 0 0 0 0 0 0 0 0 0.15 0"/>
<feBlend mode="normal" in2="BackgroundImageFix" result="effect1_dropShadow"/>
<feBlend mode="normal" in="SourceGraphic" in2="effect1_dropShadow" result="shape"/>
</filter>
<filter id="filter1_d" x="317.669" y="3.40039" width="330.77" height="435.519" filterUnits="userSpaceOnUse" color-interpolation-filters="sRGB">
<feFlood flood-opacity="0" result="BackgroundImageFix"/>
<feColorMatrix in="SourceAlpha" type="matrix" values="0 0 0 0 0 0 0 0 0 0 0 0 0 0 0 0 0 0 127 0"/>
<feOffset/>
<feGaussianBlur stdDeviation="15"/>
<feColorMatrix type="matrix" values="0 0 0 0 0 0 0 0 0 0 0 0 0 0 0 0 0 0 0.15 0"/>
<feBlend mode="normal" in2="BackgroundImageFix" result="effect1_dropShadow"/>
<feBlend mode="normal" in="SourceGraphic" in2="effect1_dropShadow" result="shape"/>
</filter>
</defs>
</svg>
