<svg width="436" height="309" viewBox="0 0 436 309" fill="none" xmlns="http://www.w3.org/2000/svg">
<path d="M240.189 111.292C240.189 184.543 192.871 244.356 111.023 244.356C29.1755 244.356 -35.0676 202.037 33.5189 143.179C-17.394 42.0019 31.0868 14.924 75.6761 9.41111C145.722 5.35753 240.189 38.0405 240.189 111.292Z" fill="#7FE6ED" fill-opacity="0.57"/>
<path d="M429.03 53.7717C429.03 94.48 388.073 156.63 338.856 156.63C289.639 156.63 179.33 68.6726 179.33 27.9643C179.33 -12.7441 277.639 20.7233 326.856 20.7233C376.073 20.7233 429.03 13.0634 429.03 53.7717Z" fill="#A6E8F0" fill-opacity="0.63"/>
<path d="M380.686 213.989C374.719 265.655 277.869 305.737 152.364 283.023C57.3314 272.047 105.6 208.843 178.801 178.497C184.769 126.83 193.468 97.5652 263.923 105.703C334.377 113.841 386.654 162.322 380.686 213.989Z" fill="#95D3E8" fill-opacity="0.66"/>
<mask id="path-4-inside-1" fill="white">
<path fill-rule="evenodd" clip-rule="evenodd" d="M295.202 168.825C289.406 166.273 282.638 168.903 280.086 174.7C277.534 180.496 280.165 187.264 285.961 189.816L286.881 190.22L284.042 196.669L292.634 192.753L324.33 206.707C330.126 209.259 336.894 206.629 339.446 200.833C341.997 195.036 339.367 188.268 333.571 185.717L295.202 168.825Z"/>
</mask>
<path fill-rule="evenodd" clip-rule="evenodd" d="M295.202 168.825C289.406 166.273 282.638 168.903 280.086 174.7C277.534 180.496 280.165 187.264 285.961 189.816L286.881 190.22L284.042 196.669L292.634 192.753L324.33 206.707C330.126 209.259 336.894 206.629 339.446 200.833C341.997 195.036 339.367 188.268 333.571 185.717L295.202 168.825Z" fill="white"/>
<path d="M286.881 190.22L291.457 192.235L293.471 187.659L288.895 185.644L286.881 190.22ZM284.042 196.669L279.466 194.654L274.181 206.657L286.115 201.219L284.042 196.669ZM292.634 192.753L294.649 188.177L292.599 187.275L290.561 188.204L292.634 192.753ZM324.33 206.707L326.344 202.131L324.33 206.707ZM284.662 176.714C286.102 173.445 289.918 171.962 293.188 173.401L297.217 164.249C288.893 160.584 279.175 164.361 275.51 172.685L284.662 176.714ZM287.976 185.239C284.707 183.8 283.223 179.983 284.662 176.714L275.51 172.685C271.845 181.009 275.623 190.727 283.946 194.392L287.976 185.239ZM288.895 185.644L287.976 185.239L283.946 194.392L284.866 194.797L288.895 185.644ZM288.618 198.684L291.457 192.235L282.305 188.206L279.466 194.654L288.618 198.684ZM290.561 188.204L281.968 192.119L286.115 201.219L294.707 197.303L290.561 188.204ZM326.344 202.131L294.649 188.177L290.619 197.33L322.315 211.284L326.344 202.131ZM334.869 198.818C333.43 202.087 329.613 203.57 326.344 202.131L322.315 211.284C330.639 214.948 340.357 211.171 344.022 202.847L334.869 198.818ZM331.556 190.293C334.825 191.732 336.309 195.549 334.869 198.818L344.022 202.847C347.686 194.523 343.909 184.805 335.585 181.14L331.556 190.293ZM293.188 173.401L331.556 190.293L335.585 181.14L297.217 164.249L293.188 173.401Z" fill="white" mask="url(#path-4-inside-1)"/>
<circle r="3.24286" transform="matrix(-0.91523 -0.402931 -0.402931 0.91523 320.367 192.659)" fill="#7CBDE4"/>
<circle r="3.24286" transform="matrix(-0.91523 -0.402931 -0.402931 0.91523 309.682 187.955)" fill="#7CBDE4"/>
<circle r="3.24286" transform="matrix(-0.91523 -0.402931 -0.402931 0.91523 298.998 183.251)" fill="#7CBDE4"/>
<path fill-rule="evenodd" clip-rule="evenodd" d="M117.667 49.0342C123.522 46.6192 130.226 49.4077 132.641 55.2625C135.056 61.1173 132.268 67.8212 126.413 70.2362L125.484 70.6195L128.17 77.1328L119.672 73.0165L87.6579 86.2219C81.8031 88.6369 75.0992 85.8484 72.6842 79.9937C70.2692 74.1389 73.0577 67.4349 78.9125 65.0199L117.667 49.0342Z" fill="#7CBDE4"/>
<circle r="3.24286" transform="matrix(-0.924444 0.381317 0.381317 0.924444 112.576 62.8937)" fill="white"/>
<circle r="3.24286" transform="matrix(-0.924444 0.381317 0.381317 0.924444 101.783 67.3453)" fill="white"/>
<circle r="3.24286" transform="matrix(-0.924444 0.381317 0.381317 0.924444 90.9914 71.7969)" fill="white"/>
<circle cx="87.3952" cy="183.384" r="23.1865" fill="white"/>
<circle cx="341.149" cy="68.1001" r="19.7815" fill="#7CBDE4"/>
<path d="M93.1753 179.776L92.0575 175.604C91.8818 174.949 91.1923 174.558 90.5252 174.737L75.9707 178.637C75.3036 178.816 74.9015 179.498 75.0772 180.154L78.2711 192.074C78.4467 192.729 79.1362 193.119 79.8033 192.941L94.3578 189.041C95.0249 188.862 95.427 188.179 95.2513 187.524L94.1335 183.352L100.263 186.82L96.7493 173.708L93.1753 179.776Z" fill="#7CBDE4"/>
<path d="M348.671 71.0435C347.541 71.0435 346.447 70.8598 345.427 70.529C345.106 70.4187 344.747 70.5014 344.499 70.7495L343.057 72.5596C340.457 71.3192 338.022 68.9762 336.726 66.2841L338.518 64.7589C338.766 64.5016 338.839 64.1432 338.738 63.8217C338.398 62.8018 338.224 61.7084 338.224 60.5783C338.224 60.0821 337.81 59.6686 337.314 59.6686H334.135C333.639 59.6686 333.042 59.8892 333.042 60.5783C333.042 69.114 340.144 76.2072 348.671 76.2072C349.323 76.2072 349.58 75.6284 349.58 75.123V71.9531C349.58 71.457 349.167 71.0435 348.671 71.0435Z" fill="white"/>
<mask id="path-17-inside-2" fill="white">
<path fill-rule="evenodd" clip-rule="evenodd" d="M362.71 141.802C403.976 129.056 435.516 79.0739 435.516 44.7534C435.516 10.6164 395.171 11.4314 351.701 12.3095C344.726 12.4504 337.67 12.5929 330.688 12.5929C315.3 12.5929 295.233 9.56815 274.769 6.48349C229.38 -0.358306 182.036 -7.49482 179.442 17.4251C144.414 5.05789 104.431 -0.141633 72.984 1.58448C27.2365 6.94923 -22.5035 33.2997 29.7318 131.759C-38.454 187.259 21.3188 227.648 101.493 230.1C88.0135 253.861 97.9968 275.415 150.048 281.118C278.743 303.795 378.543 261.212 385.111 207.281C387.989 183.649 379.377 160.745 362.71 141.802Z"/>
</mask>
<path d="M362.71 141.802L362.415 140.847L360.939 141.303L361.96 142.463L362.71 141.802ZM351.701 12.3095L351.681 11.3097L351.701 12.3095ZM274.769 6.48349L274.62 7.47232L274.769 6.48349ZM179.442 17.4251L179.109 18.368L180.305 18.7904L180.437 17.5286L179.442 17.4251ZM72.984 1.58448L72.9292 0.585983L72.8983 0.58768L72.8676 0.591286L72.984 1.58448ZM29.7318 131.759L30.3631 132.534L31.0002 132.016L30.6152 131.29L29.7318 131.759ZM101.493 230.1L102.363 230.593L103.181 229.151L101.524 229.1L101.493 230.1ZM150.048 281.118L150.221 280.133L150.189 280.128L150.156 280.124L150.048 281.118ZM385.111 207.281L386.104 207.402L385.111 207.281ZM361.96 142.463C363.927 144.699 365.78 146.99 367.514 149.33L369.121 148.139C367.353 145.753 365.465 143.418 363.461 141.141L361.96 142.463ZM376.666 164.39C379.256 169.753 381.252 175.288 382.602 180.944L384.547 180.48C383.162 174.677 381.116 169.006 378.467 163.52L376.666 164.39ZM384.659 198.383C384.654 201.293 384.476 204.22 384.118 207.16L386.104 207.402C386.471 204.383 386.654 201.375 386.659 198.386L384.659 198.383ZM384.118 207.16C383.744 210.236 383.059 213.276 382.076 216.271L383.976 216.895C384.999 213.78 385.713 210.611 386.104 207.402L384.118 207.16ZM373.319 232.77C369.778 237.519 365.429 242.08 360.33 246.399L361.623 247.925C366.823 243.52 371.28 238.851 374.922 233.966L373.319 232.77ZM344.909 257.352C339.73 260.463 334.095 263.381 328.037 266.076L328.85 267.903C334.977 265.178 340.684 262.223 345.939 259.066L344.909 257.352ZM310.343 272.903C304.531 274.836 298.433 276.587 292.07 278.139L292.544 280.082C298.958 278.518 305.108 276.752 310.974 274.801L310.343 272.903ZM273.436 281.971C267.34 283.005 261.05 283.867 254.58 284.545L254.789 286.534C261.3 285.852 267.632 284.984 273.77 283.943L273.436 281.971ZM235.596 285.972C229.382 286.26 223.029 286.385 216.549 286.336L216.534 288.336C223.05 288.385 229.438 288.26 235.689 287.97L235.596 285.972ZM197.5 285.706C191.277 285.344 184.953 284.825 178.539 284.141L178.327 286.13C184.773 286.817 191.128 287.338 197.384 287.703L197.5 285.706ZM159.64 281.685C156.518 281.207 153.379 280.69 150.221 280.133L149.874 282.103C153.046 282.662 156.201 283.181 159.337 283.662L159.64 281.685ZM150.156 280.124C146.307 279.702 142.691 279.194 139.302 278.604L138.959 280.574C142.393 281.172 146.051 281.686 149.939 282.112L150.156 280.124ZM118.333 272.894C110.06 269.513 104.468 265.318 101.107 260.611L99.4797 261.773C103.125 266.879 109.076 271.271 117.576 274.745L118.333 272.894ZM98.1452 240.466C99.0317 237.265 100.452 233.961 102.363 230.593L100.623 229.606C98.647 233.09 97.1558 236.546 96.2178 239.932L98.1452 240.466ZM101.524 229.1C98.4974 229.008 95.5007 228.861 92.5393 228.661L92.4047 230.656C95.3908 230.858 98.412 231.006 101.462 231.099L101.524 229.1ZM74.6776 226.754C68.5553 225.846 62.6625 224.697 57.0606 223.319L56.5828 225.261C62.2497 226.655 68.2043 227.816 74.3844 228.732L74.6776 226.754ZM39.9444 218.046C34.0027 215.793 28.594 213.227 23.8243 210.376L22.7982 212.093C27.6838 215.013 33.2012 217.628 39.2351 219.916L39.9444 218.046ZM9.99487 199.37C5.78097 194.718 2.9468 189.627 1.70887 184.153L-0.241861 184.595C1.08472 190.46 4.10951 195.852 8.51252 200.713L9.99487 199.37ZM2.88047 166.933C4.54144 162.035 7.34152 156.885 11.4297 151.511L9.83795 150.3C5.64552 155.812 2.7296 161.151 0.986427 166.291L2.88047 166.933ZM23.5528 138.415C25.6607 136.476 27.929 134.516 30.3631 132.534L29.1006 130.983C26.6374 132.988 24.3384 134.975 22.199 136.943L23.5528 138.415ZM30.6152 131.29C28.8657 127.992 27.2314 124.777 25.7082 121.641L23.9092 122.515C25.4433 125.673 27.0884 128.91 28.8485 132.227L30.6152 131.29ZM17.1145 101.795C14.3422 94.414 12.2859 87.5669 10.8681 81.2169L8.91616 81.6527C10.3568 88.105 12.4415 95.0416 15.2422 102.498L17.1145 101.795ZM8.3903 59.9762C8.44496 51.999 9.78619 45.0952 12.1289 39.1224L10.267 38.3921C7.82572 44.6162 6.44651 51.7659 6.39034 59.9625L8.3903 59.9762ZM24.0064 21.7494C29.133 16.9831 35.2528 13.2621 41.9393 10.3831L41.1484 8.54613C34.2975 11.4959 27.9718 15.3319 22.6446 20.2847L24.0064 21.7494ZM62.467 4.22491C66 3.53396 69.561 2.99275 73.1005 2.57767L72.8676 0.591286C69.2828 1.01167 65.6711 1.56038 62.0831 2.2621L62.467 4.22491ZM73.0389 2.58298C75.9592 2.42268 78.9544 2.32236 82.0137 2.28228L81.9875 0.282449C78.9017 0.322875 75.8786 0.424093 72.9292 0.585983L73.0389 2.58298ZM99.976 2.70269C105.83 3.04124 111.822 3.57533 117.888 4.30618L118.127 2.32054C112.021 1.58484 105.988 1.04702 100.091 0.706031L99.976 2.70269ZM135.67 6.98525C141.541 8.04784 147.424 9.29062 153.262 10.7145L153.736 8.77144C147.858 7.33781 141.936 6.08676 136.026 5.01722L135.67 6.98525ZM170.584 15.5285C173.453 16.4289 176.297 17.3753 179.109 18.368L179.775 16.4821C176.94 15.4813 174.074 14.5274 171.183 13.6203L170.584 15.5285ZM180.437 17.5286C180.747 14.544 181.73 12.0808 183.277 10.0453L181.685 8.83493C179.9 11.1837 178.793 14.0002 178.447 17.3215L180.437 17.5286ZM197.62 2.45456C202.508 1.42441 208.253 0.990691 214.63 1.00015L214.633 -0.999847C208.176 -1.00942 202.28 -0.57154 197.208 0.497551L197.62 2.45456ZM231.807 1.86064C237.327 2.34661 243.081 3.00991 248.96 3.77615L249.219 1.79292C243.321 1.02435 237.539 0.357485 231.982 -0.131653L231.807 1.86064ZM266.07 6.18974C268.92 6.61303 271.773 7.04316 274.62 7.47232L274.918 5.49466C272.072 5.06555 269.216 4.6351 266.364 4.21145L266.07 6.18974ZM274.62 7.47232C279.298 8.17749 283.959 8.88006 288.549 9.54411L288.835 7.56472C284.252 6.90166 279.597 6.19999 274.918 5.49466L274.62 7.47232ZM316.55 12.933C321.562 13.3499 326.308 13.5929 330.688 13.5929V11.5929C326.379 11.5929 321.691 11.3537 316.716 10.9398L316.55 12.933ZM330.688 13.5929C332.439 13.5929 334.194 13.584 335.951 13.5683L335.933 11.5684C334.181 11.584 332.432 11.5929 330.688 11.5929V13.5929ZM346.467 13.4132C348.223 13.38 349.975 13.3446 351.721 13.3093L351.681 11.3097C349.934 11.345 348.183 11.3803 346.43 11.4136L346.467 13.4132ZM351.721 13.3093C354.546 13.2522 357.355 13.1955 360.141 13.1486L360.108 11.1488C357.318 11.1958 354.505 11.2526 351.681 11.3097L351.721 13.3093ZM376.963 13.0675C382.809 13.1431 388.426 13.3631 393.708 13.8295L393.884 11.8372C388.536 11.365 382.866 11.1437 376.989 11.0676L376.963 13.0675ZM410.157 16.4978C416.064 18.0506 421.086 20.2464 425.002 23.3048L426.233 21.7285C422.035 18.45 416.737 16.1594 410.666 14.5635L410.157 16.4978ZM433.6 36.6325C434.2 39.0678 434.516 41.765 434.516 44.7534H436.516C436.516 41.6239 436.185 38.7645 435.542 36.1544L433.6 36.6325ZM434.516 44.7534C434.516 48.0978 434.211 51.6022 433.62 55.2163L435.593 55.5395C436.2 51.8312 436.516 48.2182 436.516 44.7534H434.516ZM427.752 75.481C425.178 81.8051 421.925 88.1592 418.087 94.3111L419.784 95.3698C423.68 89.1251 426.986 82.6692 429.604 76.2347L427.752 75.481ZM405.458 111.309C400.773 116.636 395.637 121.564 390.136 125.889L391.372 127.462C396.977 123.055 402.201 118.041 406.959 112.63L405.458 111.309ZM372.234 137.037C369.031 138.536 365.754 139.815 362.415 140.847L363.006 142.757C366.437 141.697 369.8 140.384 373.082 138.848L372.234 137.037ZM362.71 141.802L362.12 139.891L359.168 140.803L361.209 143.123L362.71 141.802ZM351.701 12.3095L351.661 10.3099L351.701 12.3095ZM274.769 6.48349L274.471 8.46114L274.769 6.48349ZM179.442 17.4251L178.776 19.311L181.168 20.1557L181.431 17.6321L179.442 17.4251ZM72.984 1.58448L72.8744 -0.412514L72.8126 -0.409121L72.7511 -0.401909L72.984 1.58448ZM29.7318 131.759L30.9944 133.31L32.2686 132.273L31.4986 130.821L29.7318 131.759ZM101.493 230.1L103.233 231.086L104.869 228.202L101.554 228.101L101.493 230.1ZM150.048 281.118L150.395 279.148L150.33 279.137L150.265 279.13L150.048 281.118ZM385.111 207.281L387.096 207.522L385.111 207.281ZM361.209 143.123C363.158 145.339 364.994 147.608 366.711 149.925L369.925 147.544C368.14 145.135 366.233 142.778 364.212 140.481L361.209 143.123ZM375.766 164.825C378.325 170.126 380.297 175.594 381.629 181.176L385.52 180.248C384.117 174.372 382.046 168.633 379.368 163.086L375.766 164.825ZM383.659 198.381C383.654 201.251 383.479 204.139 383.126 207.039L387.096 207.522C387.469 204.464 387.654 201.417 387.659 198.387L383.659 198.381ZM383.126 207.039C382.759 210.048 382.089 213.024 381.126 215.959L384.926 217.207C385.969 214.032 386.697 210.799 387.096 207.522L383.126 207.039ZM372.518 232.172C369.027 236.853 364.733 241.36 359.684 245.636L362.269 248.688C367.52 244.241 372.03 239.517 375.724 234.564L372.518 232.172ZM344.394 256.495C339.253 259.583 333.654 262.482 327.631 265.162L329.257 268.817C335.417 266.076 341.162 263.103 346.454 259.923L344.394 256.495ZM310.028 271.954C304.242 273.878 298.171 275.622 291.833 277.167L292.781 281.053C299.22 279.483 305.397 277.71 311.29 275.75L310.028 271.954ZM273.269 280.985C267.194 282.016 260.925 282.875 254.476 283.551L254.893 287.529C261.424 286.845 267.778 285.974 273.938 284.929L273.269 280.985ZM235.55 284.973C229.354 285.26 223.019 285.385 216.557 285.336L216.527 289.336C223.06 289.385 229.466 289.259 235.736 288.968L235.55 284.973ZM197.559 284.708C191.351 284.346 185.043 283.829 178.645 283.147L178.221 287.125C184.683 287.813 191.054 288.336 197.326 288.701L197.559 284.708ZM159.791 280.696C156.677 280.219 153.545 279.703 150.395 279.148L149.701 283.088C152.88 283.648 156.042 284.168 159.185 284.65L159.791 280.696ZM150.265 279.13C146.434 278.71 142.84 278.204 139.473 277.619L138.788 281.56C142.244 282.161 145.923 282.678 149.83 283.106L150.265 279.13ZM118.711 271.968C110.553 268.634 105.139 264.537 101.921 260.03L98.6658 262.354C102.453 267.66 108.583 272.15 117.198 275.671L118.711 271.968ZM99.109 240.733C99.9697 237.625 101.355 234.397 103.233 231.086L99.7534 229.113C97.7444 232.654 96.2178 236.186 95.2541 239.665L99.109 240.733ZM101.554 228.101C98.5401 228.008 95.5556 227.862 92.6066 227.663L92.3373 231.654C95.3359 231.856 98.3693 232.005 101.432 232.099L101.554 228.101ZM74.8242 225.764C68.7308 224.862 62.8689 223.718 57.2995 222.347L56.3439 226.232C62.0433 227.634 68.0288 228.801 74.2378 229.721L74.8242 225.764ZM40.2991 217.111C34.4034 214.875 29.0491 212.334 24.3374 209.518L22.2851 212.951C27.2287 215.906 32.8004 218.545 38.8805 220.851L40.2991 217.111ZM10.7361 198.699C6.6167 194.151 3.87784 189.21 2.68423 183.933L-1.21722 184.815C0.153674 190.876 3.27378 196.419 7.77134 201.384L10.7361 198.699ZM3.8275 167.254C5.44736 162.478 8.18952 157.422 12.2256 152.117L9.04205 149.695C4.79752 155.275 1.82368 160.708 0.0394037 165.969L3.8275 167.254ZM24.2298 139.151C26.3218 137.227 28.5748 135.279 30.9944 133.31L28.4693 130.208C25.9916 132.224 23.6773 134.224 21.522 136.206L24.2298 139.151ZM31.4986 130.821C29.7544 127.534 28.1255 124.329 26.6077 121.204L23.0097 122.952C24.5492 126.121 26.1997 129.368 27.9651 132.696L31.4986 130.821ZM18.0506 101.443C15.2925 94.1002 13.2505 87.2979 11.8441 80.999L7.94019 81.8707C9.39222 88.374 11.4912 95.3555 14.306 102.85L18.0506 101.443ZM9.39027 59.983C9.44418 52.1156 10.7664 45.3346 13.0599 39.4875L9.3361 38.0269C6.84548 44.3767 5.44728 51.6494 5.39037 59.9556L9.39027 59.983ZM24.6873 22.4818C29.7136 17.8088 35.7304 14.1452 42.3348 11.3016L40.7529 7.62765C33.8199 10.6128 27.3912 14.5062 21.9637 19.5523L24.6873 22.4818ZM62.6589 5.20632C66.1644 4.52074 69.7001 3.98329 73.217 3.57087L72.7511 -0.401909C69.1437 0.0211255 65.5067 0.573598 61.8912 1.28069L62.6589 5.20632ZM73.0937 3.58147C75.9995 3.42197 78.9808 3.3221 82.0268 3.28219L81.9744 -0.717465C78.8753 -0.676865 75.8383 -0.575201 72.8744 -0.412514L73.0937 3.58147ZM99.9182 3.70103C105.751 4.03835 111.722 4.57057 117.768 5.299L118.247 1.32772C112.12 0.589603 106.066 0.0499141 100.149 -0.292301L99.9182 3.70103ZM135.492 7.96926C141.344 9.02838 147.207 10.267 153.025 11.686L153.973 7.79991C148.075 6.3614 142.133 5.10622 136.204 4.0332L135.492 7.96926ZM170.284 16.4827C173.143 17.3796 175.976 18.3223 178.776 19.311L180.108 15.5392C177.262 14.5343 174.384 13.5767 171.482 12.6661L170.284 16.4827ZM181.431 17.6321C181.724 14.8159 182.645 12.5294 184.073 10.6504L180.889 8.22976C178.984 10.7351 177.816 13.7282 177.453 17.218L181.431 17.6321ZM197.827 3.43306C202.622 2.42238 208.291 1.99075 214.629 2.00015L214.635 -1.99985C208.138 -2.00948 202.167 -1.56951 197.002 -0.480951L197.827 3.43306ZM231.719 2.85679C237.222 3.34117 242.96 4.00269 248.831 4.76777L249.348 0.801308C243.442 0.0315673 237.645 -0.637075 232.07 -1.1278L231.719 2.85679ZM265.923 7.17889C268.771 7.60199 271.624 8.03196 274.471 8.46114L275.067 4.50583C272.221 4.07675 269.364 3.64614 266.511 3.2223L265.923 7.17889ZM274.471 8.46114C279.149 9.16624 283.813 9.86926 288.405 10.5338L288.978 6.57503C284.399 5.91247 279.747 5.21124 275.067 4.50583L274.471 8.46114ZM316.467 13.9295C321.498 14.348 326.273 14.5929 330.688 14.5929V10.5929C326.415 10.5929 321.755 10.3556 316.799 9.94328L316.467 13.9295ZM330.688 14.5929C332.442 14.5929 334.201 14.5839 335.96 14.5683L335.924 10.5685C334.175 10.584 332.429 10.5929 330.688 10.5929V14.5929ZM346.486 14.413C348.242 14.3798 349.995 14.3443 351.742 14.3091L351.661 10.3099C349.914 10.3452 348.164 10.3805 346.411 10.4137L346.486 14.413ZM351.742 14.3091C354.567 14.252 357.374 14.1953 360.158 14.1484L360.091 10.149C357.299 10.196 354.485 10.2528 351.661 10.3099L351.742 14.3091ZM376.95 14.0674C382.781 14.1428 388.371 14.3621 393.62 14.8256L393.972 10.8411C388.591 10.366 382.894 10.144 377.002 10.0677L376.95 14.0674ZM409.903 17.465C415.728 18.9962 420.611 21.1446 424.386 24.0929L426.848 20.9404C422.509 17.5518 417.073 15.2139 410.92 13.5964L409.903 17.465ZM432.629 36.8716C433.207 39.2195 433.516 41.8355 433.516 44.7534H437.516C437.516 41.5534 437.177 38.6129 436.513 35.9153L432.629 36.8716ZM433.516 44.7534C433.516 48.0376 433.217 51.4877 432.633 55.0547L436.58 55.701C437.195 51.9457 437.516 48.2784 437.516 44.7534H433.516ZM426.825 75.1041C424.274 81.373 421.048 87.6763 417.238 93.7818L420.632 95.8992C424.557 89.608 427.89 83.1012 430.53 76.6116L426.825 75.1041ZM404.707 110.648C400.059 115.934 394.967 120.819 389.518 125.103L391.99 128.248C397.647 123.8 402.915 118.743 407.71 113.29L404.707 110.648ZM371.81 136.131C368.647 137.612 365.413 138.874 362.12 139.891L363.301 143.713C366.779 142.638 370.185 141.308 373.506 139.754L371.81 136.131Z" fill="#BCD6DE" mask="url(#path-17-inside-2)"/>
<path d="M214.443 93.5408C235.413 93.5408 252.412 85.8131 252.412 76.2804C252.412 66.7478 235.413 59.02 214.443 59.02C193.473 59.02 176.473 66.7478 176.473 76.2804C176.473 85.8131 193.473 93.5408 214.443 93.5408Z" fill="#34130C"/>
<path d="M197.224 68.3193C188.992 68.9035 180.083 65.2536 177.093 63.0784L176.692 63.038C176.308 67.4003 174.683 73.698 181.561 77.4927" fill="#34130C"/>
<path d="M188.515 95.8134C189.781 80.9822 187.075 68.6407 182.47 68.2478C177.865 67.855 173.106 79.5596 171.84 94.3908C170.574 109.222 173.28 121.564 177.885 121.956C182.49 122.349 187.249 110.645 188.515 95.8134Z" fill="#34130C"/>
<path d="M250.899 121.878C255.85 121.455 258.837 109.072 257.569 94.2196C256.301 79.3668 251.259 67.6687 246.307 68.0912C241.355 68.5136 238.369 80.8966 239.637 95.7494C240.905 110.602 245.947 122.3 250.899 121.878Z" fill="#34130C"/>
<path d="M193.625 61.8209C189.476 62.9023 185.13 62.9918 180.94 62.0821L180.709 62.1178C182.027 64.2194 183.351 67.3967 188.386 68.2492" fill="#34130C"/>
<path d="M228.68 187.115C236.718 187.115 263.511 182.863 272.621 201.692C282.812 215.562 286.017 243.602 289.233 269.112H146.503V268.524C149.718 243.013 152.924 214.974 163.115 201.104C172.224 182.275 199.018 186.526 207.056 186.526" fill="white"/>
<path d="M181.071 201.967C187.64 161.564 258.665 168.958 252.7 215.839" stroke="#66818A" stroke-width="6" stroke-miterlimit="10"/>
<path d="M234.393 159.068C231.542 179.769 236.917 204.437 237.656 204.437H195.917C196.656 204.437 202.031 179.769 199.18 159.068H234.304" fill="#FEC198"/>
<path d="M195.385 205.345C196.124 205.345 201.499 180.676 198.648 159.976C198.648 158.383 214.266 157.093 233.568 157.093C221.818 186.302 196.258 206.919 195.386 205.251L195.385 205.345Z" fill="#FFB587"/>
<path d="M177.399 109.816C177.399 139.472 197.019 170.726 216.5 170.726C235.981 170.726 255.517 139.472 255.517 109.816C255.517 80.1595 237.075 69.2087 217.593 69.2087C198.11 69.2087 177.399 80.1595 177.399 109.816Z" fill="#FEC198"/>
<path d="M245.862 126.345L255.619 122.006L240.235 87.4358L230.477 91.775L245.862 126.345Z" fill="#FEC198"/>
<path d="M206.718 109.164C203.589 107.383 195.493 107.494 190.071 110.851C191.733 106.125 206.903 101.317 206.718 109.164Z" fill="#5C2E1F"/>
<path d="M205.451 114.298C204.306 113.9 197.484 110.855 195.692 118.88" stroke="#F5A574" stroke-width="0.9" stroke-miterlimit="10"/>
<path d="M201.317 125.016C202.252 125.016 203.011 124.19 203.011 123.171C203.011 122.152 202.252 121.326 201.317 121.326C200.382 121.326 199.623 122.152 199.623 123.171C199.623 124.19 200.382 125.016 201.317 125.016Z" fill="white"/>
<path d="M214.247 140.76C205.541 141.66 211.345 132.686 212.985 128.228C211.987 132.832 211.985 139.817 214.405 140.744" fill="#F2A973"/>
<path d="M218.672 141.097C221.76 141.097 221.76 141.097 221.76 138.504V138.148C221.69 138.9 221.327 139.593 220.749 140.078C220.171 140.564 219.425 140.802 218.672 140.741" fill="#F2A973"/>
<path d="M205.495 151.085C209.053 153.055 213.053 154.088 217.119 154.088C221.186 154.088 225.186 153.055 228.743 151.085" stroke="#F2A973" stroke-width="1.35" stroke-miterlimit="10"/>
<path d="M211.863 157.719C211.863 157.719 216.525 161.426 221.187 157.719H211.863Z" fill="#F2A973"/>
<path d="M228.134 149.294C228.267 150.125 229.354 152.618 229.647 152.568" stroke="#F2A973" stroke-width="0.9" stroke-miterlimit="10"/>
<path d="M225.229 113.559C226.373 113.162 233.196 110.116 234.988 118.14" stroke="#F5A574" stroke-width="0.9" stroke-miterlimit="10"/>
<path d="M209.379 269.112H223.212L234.337 188.341L235.44 186.42L215.729 206.27L197.705 186.42" fill="#3D7689"/>
<path d="M234.738 186.874L214.131 201.776L219.799 209.609L240.406 194.706L234.738 186.874Z" fill="white"/>
<path d="M234.209 186.744L238.699 186.797L251.507 208.344L241.244 211.773L246.92 215.353L222.583 269.112L234.204 186.746" fill="#B3E3EE"/>
<path d="M192.369 193.799L212.976 208.702L218.644 200.87L198.037 185.967L192.369 193.799Z" fill="white"/>
<path d="M198.826 186.115L193.886 186.168L181.085 208.426L191.342 211.85L185.669 215.426L209.379 269.112L198.831 186.487" fill="#B3E3EE"/>
<path d="M224.219 109.164C227.35 107.383 235.445 107.494 240.866 110.851C239.204 106.125 224.036 101.317 224.219 109.164Z" fill="#5C2E1F"/>
<path fill-rule="evenodd" clip-rule="evenodd" d="M197.262 122.102C197.262 118.602 199.281 115.766 201.761 115.766C204.241 115.766 206.26 118.602 206.26 122.102C206.26 125.603 204.241 128.439 201.761 128.439C199.281 128.439 197.262 125.603 197.262 122.102Z" fill="#404040"/>
<path d="M197.262 122.102C197.262 118.602 199.281 115.766 201.761 115.766C204.241 115.766 206.26 118.602 206.26 122.102C206.26 125.603 204.241 128.439 201.761 128.439C199.281 128.439 197.262 125.603 197.262 122.102Z" stroke="#595959" stroke-width="0.288" stroke-miterlimit="8"/>
<path fill-rule="evenodd" clip-rule="evenodd" d="M197.736 122.238C197.736 119.032 199.643 116.439 201.999 116.439C204.354 116.439 206.26 119.035 206.26 122.238C206.26 125.44 204.353 128.036 201.999 128.036C199.645 128.036 197.736 125.439 197.736 122.238Z" fill="white"/>
<path d="M197.736 122.238C197.736 119.032 199.643 116.439 201.999 116.439C204.354 116.439 206.26 119.035 206.26 122.238C206.26 125.44 204.353 128.036 201.999 128.036C199.645 128.036 197.736 125.439 197.736 122.238Z" stroke="white" stroke-width="0.288" stroke-miterlimit="8"/>
<path fill-rule="evenodd" clip-rule="evenodd" d="M198.999 122.507C198.999 120.05 200.519 118.057 202.393 118.057C204.267 118.057 205.788 120.05 205.788 122.507C205.788 124.965 204.267 126.956 202.393 126.956C200.519 126.956 198.999 124.964 198.999 122.507Z" fill="#705D4D"/>
<path d="M198.999 122.507C198.999 120.05 200.519 118.057 202.393 118.057C204.267 118.057 205.788 120.05 205.788 122.507C205.788 124.965 204.267 126.956 202.393 126.956C200.519 126.956 198.999 124.964 198.999 122.507Z" stroke="#705D4D" stroke-width="0.288" stroke-miterlimit="8"/>
<path fill-rule="evenodd" clip-rule="evenodd" d="M200.261 122.979C200.261 121.005 201.463 119.406 202.945 119.406C204.428 119.406 205.63 121.005 205.63 122.979C205.63 124.952 204.428 126.551 202.945 126.551C201.463 126.551 200.261 124.952 200.261 122.979Z" fill="#29211D"/>
<path d="M200.261 122.979C200.261 121.005 201.463 119.406 202.945 119.406C204.428 119.406 205.63 121.005 205.63 122.979C205.63 124.952 204.428 126.551 202.945 126.551C201.463 126.551 200.261 124.952 200.261 122.979Z" stroke="#29211D" stroke-width="0.288" stroke-miterlimit="8"/>
<path fill-rule="evenodd" clip-rule="evenodd" d="M202.629 121.299C202.662 121.103 202.751 120.921 202.884 120.774C203.017 120.627 203.189 120.521 203.38 120.469C203.572 120.416 203.774 120.42 203.964 120.479C204.153 120.537 204.322 120.649 204.45 120.8C204.578 120.952 204.66 121.137 204.686 121.333C204.713 121.53 204.683 121.73 204.599 121.91C204.516 122.09 204.382 122.242 204.215 122.349C204.048 122.455 203.854 122.512 203.656 122.512C203.359 122.485 203.086 122.343 202.893 122.116C202.701 121.889 202.607 121.595 202.629 121.299Z" fill="white"/>
<path fill-rule="evenodd" clip-rule="evenodd" d="M233.539 121.86C233.539 118.36 231.52 115.522 229.04 115.522C226.56 115.522 224.54 118.36 224.54 121.86C224.54 125.36 226.559 128.197 229.04 128.197C231.521 128.197 233.539 125.359 233.539 121.86Z" fill="#404040"/>
<path d="M233.539 121.86C233.539 118.36 231.52 115.522 229.04 115.522C226.56 115.522 224.54 118.36 224.54 121.86C224.54 125.36 226.559 128.197 229.04 128.197C231.521 128.197 233.539 125.359 233.539 121.86Z" stroke="#595959" stroke-width="0.288" stroke-miterlimit="8"/>
<path fill-rule="evenodd" clip-rule="evenodd" d="M233.065 121.994C233.065 118.788 231.157 116.196 228.803 116.196C226.448 116.196 224.54 118.792 224.54 121.994C224.54 125.197 226.448 127.792 228.803 127.792C231.157 127.792 233.065 125.197 233.065 121.994Z" fill="white"/>
<path d="M233.065 121.994C233.065 118.788 231.157 116.196 228.803 116.196C226.448 116.196 224.54 118.792 224.54 121.994C224.54 125.197 226.448 127.792 228.803 127.792C231.157 127.792 233.065 125.197 233.065 121.994Z" stroke="white" stroke-width="0.288" stroke-miterlimit="8"/>
<path fill-rule="evenodd" clip-rule="evenodd" d="M231.803 122.264C231.803 119.807 230.282 117.815 228.408 117.815C226.534 117.815 225.013 119.807 225.013 122.264C225.013 124.72 226.534 126.714 228.408 126.714C230.282 126.714 231.803 124.722 231.803 122.264Z" fill="#705D4D"/>
<path d="M231.803 122.264C231.803 119.807 230.282 117.815 228.408 117.815C226.534 117.815 225.013 119.807 225.013 122.264C225.013 124.72 226.534 126.714 228.408 126.714C230.282 126.714 231.803 124.722 231.803 122.264Z" stroke="#705D4D" stroke-width="0.288" stroke-miterlimit="8"/>
<path fill-rule="evenodd" clip-rule="evenodd" d="M230.539 122.736C230.539 120.763 229.338 119.164 227.856 119.164C226.374 119.164 225.172 120.763 225.172 122.736C225.172 124.71 226.374 126.309 227.856 126.309C229.338 126.309 230.539 124.71 230.539 122.736Z" fill="#29211D"/>
<path d="M230.539 122.736C230.539 120.763 229.338 119.164 227.856 119.164C226.374 119.164 225.172 120.763 225.172 122.736C225.172 124.71 226.374 126.309 227.856 126.309C229.338 126.309 230.539 124.71 230.539 122.736Z" stroke="#29211D" stroke-width="0.288" stroke-miterlimit="8"/>
<path fill-rule="evenodd" clip-rule="evenodd" d="M228.172 121.056C228.139 120.861 228.05 120.679 227.917 120.532C227.784 120.385 227.612 120.279 227.42 120.226C227.229 120.174 227.027 120.177 226.837 120.236C226.648 120.295 226.479 120.407 226.351 120.558C226.223 120.71 226.141 120.894 226.115 121.091C226.088 121.287 226.118 121.487 226.202 121.667C226.285 121.847 226.418 121.999 226.586 122.106C226.753 122.213 226.947 122.27 227.145 122.27C227.442 122.243 227.715 122.1 227.907 121.873C228.099 121.646 228.194 121.353 228.172 121.056Z" fill="white"/>
<path d="M168.783 217.427C167.307 232.196 165.251 240.979 175.352 240.592" stroke="#C1C0BF" stroke-width="3" stroke-miterlimit="10"/>
<path d="M176.272 242.888L178.326 242.737C178.907 242.695 179.343 242.19 179.3 241.61L179.149 239.557C179.107 238.976 178.602 238.541 178.022 238.583L175.968 238.734C175.387 238.776 174.951 239.281 174.994 239.861L175.145 241.915C175.187 242.495 175.692 242.93 176.272 242.888Z" fill="#66818A"/>
<path d="M192.605 217.74C193.506 232.555 195.218 241.411 185.142 240.632" stroke="#C1C0BF" stroke-width="3" stroke-miterlimit="10"/>
<path d="M184.599 238.752L182.552 238.521C181.974 238.456 181.453 238.872 181.388 239.45L181.157 241.496C181.092 242.074 181.508 242.596 182.086 242.661L184.133 242.891C184.711 242.956 185.233 242.54 185.298 241.962L185.528 239.916C185.593 239.338 185.177 238.817 184.599 238.752Z" fill="#66818A"/>
<path d="M169.183 218.686C170.832 193.827 191.806 196.151 192.635 219.81" stroke="#66818A" stroke-width="6" stroke-miterlimit="10"/>
<path d="M254.633 220.126C255.806 219.113 255.348 216.662 253.61 214.651C251.873 212.641 249.514 211.832 248.341 212.845C247.168 213.858 247.626 216.309 249.363 218.32C251.1 220.33 253.46 221.139 254.633 220.126Z" fill="#C1C0BF"/>
<path d="M247.34 213.11C246.75 212.428 245.719 212.353 245.037 212.942C244.354 213.532 244.279 214.563 244.869 215.245L251.674 223.114C252.263 223.796 253.295 223.871 253.977 223.281C254.659 222.691 254.734 221.661 254.145 220.978L247.34 213.11Z" fill="#66818A"/>
<path d="M267.904 227.843H249.197V232.06H267.904V227.843Z" fill="#B3E3EE"/>
<path d="M217.074 203.781L213.511 200.899L207.454 259.889L209.681 269.112H217.074V203.781Z" fill="#242C41"/>
<path d="M215.681 203.781L219.244 200.899L225.302 259.889L223.075 269.112H215.681V203.781Z" fill="#242C41"/>
<path d="M218.327 198.857H214.405C212.473 198.857 210.906 200.423 210.906 202.355V203.648C210.906 205.58 212.473 207.146 214.405 207.146H218.327C220.26 207.146 221.826 205.58 221.826 203.648V202.355C221.826 200.423 220.26 198.857 218.327 198.857Z" fill="#242C41"/>
<path d="M216.451 96.5994C237.421 96.5994 254.421 88.8717 254.421 79.339C254.421 69.8064 237.421 62.0786 216.451 62.0786C195.481 62.0786 178.481 69.8064 178.481 79.339C178.481 88.8717 195.481 96.5994 216.451 96.5994Z" fill="#461F15"/>
<path d="M199.236 71.3779C191.004 71.9621 182.094 68.3122 179.105 66.137L178.703 66.0978C178.32 70.4589 176.695 76.7566 183.573 80.5513" fill="#461F15"/>
<path d="M190.524 98.872C191.79 84.0408 189.083 71.6992 184.479 71.3064C179.874 70.9136 175.114 82.6182 173.848 97.4494C172.582 112.281 175.289 124.622 179.893 125.015C184.498 125.408 189.258 113.703 190.524 98.872Z" fill="#461F15"/>
<path d="M252.907 124.936C257.859 124.514 260.845 112.131 259.577 97.2781C258.309 82.4253 253.267 70.7272 248.315 71.1497C243.364 71.5721 240.377 83.9551 241.645 98.8079C242.913 113.661 247.955 125.359 252.907 124.936Z" fill="#461F15"/>
<path d="M195.634 64.8795C191.484 65.9609 187.139 66.0504 182.948 65.1407L182.718 65.1764C184.035 67.2779 185.36 70.4553 190.394 71.3078" fill="#461F15"/>
<path d="M247.221 128.693L255.225 125.904L243.3 91.7085L235.297 94.4976L247.221 128.693Z" fill="#FEC198"/>
<path d="M179.796 134.859C182.519 134.231 183.435 128.134 181.843 121.242C180.25 114.349 176.752 109.272 174.03 109.901C171.307 110.529 170.39 116.626 171.983 123.518C173.575 130.41 177.073 135.488 179.796 134.859Z" fill="#FEC198"/>
<path d="M260.411 123.518C262.004 116.625 261.087 110.529 258.365 109.9C255.642 109.271 252.144 114.349 250.551 121.241C248.959 128.133 249.875 134.23 252.598 134.859C255.321 135.487 258.819 130.41 260.411 123.518Z" fill="#FEC198"/>
<path d="M197.954 94.5679L189.95 91.7788L178.026 125.974L186.029 128.764L197.954 94.5679Z" fill="#FEC198"/>
<path d="M255.845 118.259C255.845 118.259 258.506 123.587 253.913 127.377L255.845 118.259Z" fill="#F2A973"/>
<path d="M176.276 118.391C176.276 118.391 173.933 124.077 178.926 127.638L176.276 118.391Z" fill="#F2A973"/>
<rect x="39.7634" y="269.112" width="357.039" height="6.48572" rx="3.24286" fill="#C4C4C4"/>
<rect x="50.7888" y="281.111" width="362.228" height="10.7014" rx="5.35072" fill="#C4C4C4"/>
<rect x="37.4932" y="269.112" width="40.5358" height="10.7014" rx="5.35072" fill="#C4C4C4"/>
<rect x="50.7888" y="272.355" width="332.069" height="13.62" fill="#C4C4C4"/>
<rect x="373.778" y="275.598" width="27.8886" height="5.51287" rx="2.75643" fill="white"/>
<circle cx="404.909" cy="272.355" r="3.24286" fill="#C4C4C4"/>
<rect x="43.6545" y="285.326" width="31.4558" height="6.48572" rx="3.24286" fill="#C4C4C4"/>
<rect x="24.5217" y="279.813" width="31.1315" height="5.51287" rx="2.75643" fill="white"/>
</svg>
